<svg id="kity_svg_6" xmlns="http://www.w3.org/2000/svg" xmlns:xlink="http://www.w3.org/1999/xlink" version="1.1" width="1193" height="1661" style="background: rgb(251, 251, 251); visibility: visible;" viewBox="0 0 1193 1661"><defs id="kity_defs_7"><linearGradient id="kity_linearGradient_17" x1="0" y1="0" x2="0" y2="1"><stop id="kity_stop_18" offset="0" stop-color="rgb(255, 255, 255)"></stop><stop id="kity_stop_19" offset="1" stop-color="rgb(204, 204, 204)"></stop></linearGradient><marker id="kity_marker_2" orient="auto" refX="6" refY="0" viewBox="-7 -7 14 14" markerWidth="7" markerHeight="7" markerUnits="userSpaceOnUse"><path id="kity_path_3" fill="rgb(115, 161, 191)" stroke="none" d="M6,0A6,6,0,1,1,-6,0A6,6,0,1,1,6,0"></path></marker></defs><g id="kity_g_8"><g id="minder1" text-rendering="optimize-speed"><g id="minder_connect_group1"><path id="kity_path_31" fill="none" stroke="rgb(115, 161, 191)" stroke-width="1" d="M498.5000000000001,1064.0000305175781A171,562.5,0,0,1,669.5000000000001,501.5000305175781"></path><path id="kity_path_33" fill="none" stroke="rgb(115, 161, 191)" stroke-width="1" d="M753.5000000000001,501.5000305175781C768.5000000000001,501.5000305175781,768.5000000000001,52.500030517578125,783.5000000000001,52.500030517578125L962.5000000000001,52.500030517578125"></path><path id="kity_path_35" fill="none" stroke="rgb(115, 161, 191)" stroke-width="1" d="M753.5000000000001,501.5000305175781C768.5000000000001,501.5000305175781,768.5000000000001,195.50003051757812,783.5000000000001,195.50003051757812L839.5000000000001,195.50003051757812"></path><path id="kity_path_37" fill="none" stroke="rgb(115, 161, 191)" stroke-width="1" d="M839.5000000000001,195.50003051757812C854.5000000000001,195.50003051757812,854.5000000000001,112.50003051757812,869.5000000000001,112.50003051757812L985.5000000000001,112.50003051757812"></path><path id="kity_path_39" fill="none" stroke="rgb(115, 161, 191)" stroke-width="1" d="M839.5000000000001,195.50003051757812C854.5000000000001,195.50003051757812,854.5000000000001,169.50003051757812,869.5000000000001,169.50003051757812L944.5000000000001,169.50003051757812"></path><path id="kity_path_41" fill="none" stroke="rgb(115, 161, 191)" stroke-width="1" d="M839.5000000000001,195.50003051757812C854.5000000000001,195.50003051757812,854.5000000000001,226.50003051757812,869.5000000000001,226.50003051757812L953.5000000000001,226.50003051757812"></path><path id="kity_path_43" fill="none" stroke="rgb(115, 161, 191)" stroke-width="1" d="M839.5000000000001,195.50003051757812C854.5000000000001,195.50003051757812,854.5000000000001,286.5000305175781,869.5000000000001,286.5000305175781L986.5000000000001,286.5000305175781"></path><path id="kity_path_45" fill="none" stroke="rgb(115, 161, 191)" stroke-width="1" d="M753.5000000000001,501.5000305175781C768.5000000000001,501.5000305175781,768.5000000000001,368.5000305175781,783.5000000000001,368.5000305175781L838.5000000000001,368.5000305175781"></path><path id="kity_path_47" fill="none" stroke="rgb(115, 161, 191)" stroke-width="1" d="M838.5000000000001,368.5000305175781C860.5000000000001,368.5000305175781,860.5000000000001,346.5000305175781,882.5000000000001,346.5000305175781L964.5000000000001,346.5000305175781"></path><path id="kity_path_49" fill="none" stroke="rgb(115, 161, 191)" stroke-width="1" d="M838.5000000000001,368.5000305175781C853.5000000000001,368.5000305175781,853.5000000000001,398.5000305175781,868.5000000000001,398.5000305175781L1013.5000000000001,398.5000305175781"></path><path id="kity_path_51" fill="none" stroke="rgb(115, 161, 191)" stroke-width="1" d="M753.5000000000001,501.5000305175781C768.5000000000001,501.5000305175781,768.5000000000001,484.5000305175781,783.5000000000001,484.5000305175781L838.5000000000001,484.5000305175781"></path><path id="kity_path_53" fill="none" stroke="rgb(115, 161, 191)" stroke-width="1" d="M838.5000000000001,484.5000305175781C853.5000000000001,484.5000305175781,853.5000000000001,458.5000305175781,868.5000000000001,458.5000305175781L1013.5000000000001,458.5000305175781"></path><path id="kity_path_55" fill="none" stroke="rgb(115, 161, 191)" stroke-width="1" d="M838.5000000000001,484.5000305175781C853.5000000000001,484.5000305175781,853.5000000000001,518.5000305175781,868.5000000000001,518.5000305175781L1014.5000000000001,518.5000305175781"></path><path id="kity_path_57" fill="none" stroke="rgb(115, 161, 191)" stroke-width="1" d="M753.5000000000001,501.5000305175781C768.5000000000001,501.5000305175781,768.5000000000001,600.5000305175781,783.5000000000001,600.5000305175781L837.5000000000001,600.5000305175781"></path><path id="kity_path_59" fill="none" stroke="rgb(115, 161, 191)" stroke-width="1" d="M837.5000000000001,600.5000305175781C852.5000000000001,600.5000305175781,852.5000000000001,570.5000305175781,867.5000000000001,570.5000305175781L1022.5000000000001,570.5000305175781"></path><path id="kity_path_61" fill="none" stroke="rgb(115, 161, 191)" stroke-width="1" d="M837.5000000000001,600.5000305175781C852.5000000000001,600.5000305175781,852.5000000000001,630.5000305175781,867.5000000000001,630.5000305175781L970.5000000000001,630.5000305175781"></path><path id="kity_path_63" fill="none" stroke="rgb(115, 161, 191)" stroke-width="1" d="M753.5000000000001,501.5000305175781C768.5000000000001,501.5000305175781,768.5000000000001,746.5000305175781,783.5000000000001,746.5000305175781L862.5000000000001,746.5000305175781"></path><path id="kity_path_65" fill="none" stroke="rgb(115, 161, 191)" stroke-width="1" d="M862.5000000000001,746.5000305175781C877.5000000000001,746.5000305175781,877.5000000000001,690.5000305175781,892.5000000000001,690.5000305175781L1055.5,690.5000305175781"></path><path id="kity_path_67" fill="none" stroke="rgb(115, 161, 191)" stroke-width="1" d="M862.5000000000001,746.5000305175781C877.5000000000001,746.5000305175781,877.5000000000001,750.5000305175781,892.5000000000001,750.5000305175781L1044.5,750.5000305175781"></path><path id="kity_path_69" fill="none" stroke="rgb(115, 161, 191)" stroke-width="1" d="M862.5000000000001,746.5000305175781C877.5000000000001,746.5000305175781,877.5000000000001,810.5000305175781,892.5000000000001,810.5000305175781L1046.5,810.5000305175781"></path><path id="kity_path_71" fill="none" stroke="rgb(115, 161, 191)" stroke-width="1" d="M753.5000000000001,501.5000305175781C768.5000000000001,501.5000305175781,768.5000000000001,866.5000305175781,783.5000000000001,866.5000305175781L854.5000000000001,866.5000305175781"></path><path id="kity_path_73" fill="none" stroke="rgb(115, 161, 191)" stroke-width="1" d="M854.5000000000001,866.5000305175781C869.5000000000001,866.5000305175781,869.5000000000001,870.5000305175781,884.5000000000001,870.5000305175781L1029.5,870.5000305175781"></path><path id="kity_path_75" fill="none" stroke="rgb(115, 161, 191)" stroke-width="1" d="M753.5000000000001,501.5000305175781C768.5000000000001,501.5000305175781,768.5000000000001,986.5000305175781,783.5000000000001,986.5000305175781L837.5000000000001,986.5000305175781"></path><path id="kity_path_77" fill="none" stroke="rgb(115, 161, 191)" stroke-width="1" d="M837.5000000000001,986.5000305175781C852.5000000000001,986.5000305175781,852.5000000000001,930.5000305175781,867.5000000000001,930.5000305175781L970.5000000000001,930.5000305175781"></path><path id="kity_path_79" fill="none" stroke="rgb(115, 161, 191)" stroke-width="1" d="M837.5000000000001,986.5000305175781C852.5000000000001,986.5000305175781,852.5000000000001,990.5000305175781,867.5000000000001,990.5000305175781L1005.5000000000001,990.5000305175781"></path><path id="kity_path_81" fill="none" stroke="rgb(115, 161, 191)" stroke-width="1" d="M837.5000000000001,986.5000305175781C852.5000000000001,986.5000305175781,852.5000000000001,1050.5000305175781,867.5000000000001,1050.5000305175781L982.5000000000001,1050.5000305175781"></path><path id="kity_path_83" fill="none" stroke="rgb(115, 161, 191)" stroke-width="1" d="M498.5000000000001,1064.0000305175781A171,309.5,0,0,0,669.5000000000001,1373.5000305175781"></path><path id="kity_path_85" fill="none" stroke="rgb(115, 161, 191)" stroke-width="1" d="M767.5000000000001,1373.5000305175781C782.5000000000001,1373.5000305175781,782.5000000000001,1206.5000305175781,797.5000000000001,1206.5000305175781L900.5000000000001,1206.5000305175781"></path><path id="kity_path_87" fill="none" stroke="rgb(115, 161, 191)" stroke-width="1" d="M900.5000000000001,1206.5000305175781C915.5000000000001,1206.5000305175781,915.5000000000001,1112.5000305175781,930.5000000000001,1112.5000305175781L1073.5,1112.5000305175781"></path><path id="kity_path_89" fill="none" stroke="rgb(115, 161, 191)" stroke-width="1" d="M900.5000000000001,1206.5000305175781C915.5000000000001,1206.5000305175781,915.5000000000001,1172.5000305175781,930.5000000000001,1172.5000305175781L1173.5,1172.5000305175781"></path><path id="kity_path_91" fill="none" stroke="rgb(115, 161, 191)" stroke-width="1" d="M900.5000000000001,1206.5000305175781C915.5000000000001,1206.5000305175781,915.5000000000001,1232.5000305175781,930.5000000000001,1232.5000305175781L1106.5,1232.5000305175781"></path><path id="kity_path_93" fill="none" stroke="rgb(115, 161, 191)" stroke-width="1" d="M900.5000000000001,1206.5000305175781C915.5000000000001,1206.5000305175781,915.5000000000001,1292.5000305175781,930.5000000000001,1292.5000305175781L1077.5,1292.5000305175781"></path><path id="kity_path_95" fill="none" stroke="rgb(115, 161, 191)" stroke-width="1" d="M767.5000000000001,1373.5000305175781C782.5000000000001,1373.5000305175781,782.5000000000001,1404.5000305175781,797.5000000000001,1404.5000305175781L852.5000000000001,1404.5000305175781"></path><path id="kity_path_97" fill="none" stroke="rgb(115, 161, 191)" stroke-width="1" d="M852.5000000000001,1404.5000305175781C867.5000000000001,1404.5000305175781,867.5000000000001,1352.5000305175781,882.5000000000001,1352.5000305175781L1057.5,1352.5000305175781"></path><path id="kity_path_99" fill="none" stroke="rgb(115, 161, 191)" stroke-width="1" d="M852.5000000000001,1404.5000305175781C867.5000000000001,1404.5000305175781,867.5000000000001,1412.5000305175781,882.5000000000001,1412.5000305175781L1025.5,1412.5000305175781"></path><path id="kity_path_101" fill="none" stroke="rgb(115, 161, 191)" stroke-width="1" d="M852.5000000000001,1404.5000305175781C867.5000000000001,1404.5000305175781,867.5000000000001,1464.5000305175781,882.5000000000001,1464.5000305175781L972.5000000000001,1464.5000305175781"></path><path id="kity_path_103" fill="none" stroke="rgb(115, 161, 191)" stroke-width="1" d="M767.5000000000001,1373.5000305175781C782.5000000000001,1373.5000305175781,782.5000000000001,1524.5000305175781,797.5000000000001,1524.5000305175781L896.5000000000001,1524.5000305175781"></path><path id="kity_path_105" fill="none" stroke="rgb(115, 161, 191)" stroke-width="1" d="M767.5000000000001,1373.5000305175781C782.5000000000001,1373.5000305175781,782.5000000000001,1576.5000305175781,797.5000000000001,1576.5000305175781L880.5000000000001,1576.5000305175781"></path><path id="kity_path_107" fill="none" stroke="rgb(115, 161, 191)" stroke-width="1" d="M498.5000000000001,1064.0000305175781A171,562.5,0,0,0,669.5000000000001,1626.5000305175781"></path><path id="kity_path_109" fill="none" stroke="rgb(115, 161, 191)" stroke-width="1" d="M739.5000000000001,1626.5000305175781C754.5000000000001,1626.5000305175781,754.5000000000001,1640.5000305175781,769.5000000000001,1640.5000305175781L835.5000000000001,1640.5000305175781"></path><path id="kity_path_111" fill="none" stroke="rgb(115, 161, 191)" stroke-width="1" d="M498.5000000000001,1064.0000305175781A171,153.5,0,0,0,327.5000000000001,910.5000305175781"></path><path id="kity_path_113" fill="none" stroke="rgb(115, 161, 191)" stroke-width="1" d="M257.5000000000001,910.5000305175781C242.5000000000001,910.5000305175781,242.5000000000001,872.5000305175781,227.5000000000001,872.5000305175781L125.50000000000011,872.5000305175781"></path><path id="kity_path_115" fill="none" stroke="rgb(115, 161, 191)" stroke-width="1" d="M257.5000000000001,910.5000305175781C242.5000000000001,910.5000305175781,242.5000000000001,924.5000305175781,227.5000000000001,924.5000305175781L75.50000000000011,924.5000305175781"></path><path id="kity_path_117" fill="none" stroke="rgb(115, 161, 191)" stroke-width="1" d="M257.5000000000001,910.5000305175781C242.5000000000001,910.5000305175781,242.5000000000001,976.5000305175781,227.5000000000001,976.5000305175781L100.50000000000011,976.5000305175781"></path><path id="kity_path_119" fill="none" stroke="rgb(115, 161, 191)" stroke-width="1" d="M498.5000000000001,1064.0000305175781A171,3.5,0,0,0,327.5000000000001,1060.5000305175781"></path><path id="kity_path_121" fill="none" stroke="rgb(115, 161, 191)" stroke-width="1" d="M158.5000000000001,1060.5000305175781C143.5000000000001,1060.5000305175781,143.5000000000001,1048.5000305175781,128.5000000000001,1048.5000305175781L25.500000000000114,1048.5000305175781"></path><path id="kity_path_123" fill="none" stroke="rgb(115, 161, 191)" stroke-width="1" d="M158.5000000000001,1060.5000305175781C143.5000000000001,1060.5000305175781,143.5000000000001,1110.5000305175781,128.5000000000001,1110.5000305175781L20.500000000000114,1110.5000305175781"></path><path id="kity_path_125" fill="none" stroke="rgb(115, 161, 191)" stroke-width="1" d="M498.5000000000001,1064.0000305175781A171,154.5,0,0,1,327.5000000000001,1218.5000305175781"></path><path id="kity_path_127" fill="none" stroke="rgb(115, 161, 191)" stroke-width="1" d="M257.5000000000001,1218.5000305175781C242.5000000000001,1218.5000305175781,242.5000000000001,1180.5000305175781,227.5000000000001,1180.5000305175781L73.50000000000011,1180.5000305175781"></path><path id="kity_path_129" fill="none" stroke="rgb(115, 161, 191)" stroke-width="1" d="M257.5000000000001,1218.5000305175781C242.5000000000001,1218.5000305175781,242.5000000000001,1232.5000305175781,227.5000000000001,1232.5000305175781L113.50000000000011,1232.5000305175781"></path><path id="kity_path_131" fill="none" stroke="rgb(115, 161, 191)" stroke-width="1" d="M257.5000000000001,1218.5000305175781C242.5000000000001,1218.5000305175781,242.5000000000001,1292.5000305175781,227.5000000000001,1292.5000305175781L39.500000000000114,1292.5000305175781"></path></g><g id="minder_node1"><path id="node_outline1" fill="rgb(115, 161, 191)" stroke="rgb(57, 80, 96)" d="M450.5000000000001,1043.5000305175781h96a5,5,0,0,1,5,5v31a5,5,0,0,1,-5,5h-96a5,5,0,0,1,-5,-5v-31a5,5,0,0,1,5,-5z" stroke-width="3"></path><g id="node_text1" fill="white"><text id="kity_text_22" text-rendering="inherit" font-size="16" dy=".8em" y="1053.1000304222107" x="469.5000000000001">读书</text></g><g id="kity_g_384" style="cursor: pointer;"><path id="kity_path_385" fill="none" stroke="none" d="M514.0000000000001,1055.0000305175781h12a2,2,0,0,1,2,2v13a2,2,0,0,1,-2,2h-12a2,2,0,0,1,-2,-2v-13a2,2,0,0,1,2,-2z"></path><path id="kity_path_386" fill="white" stroke="none" d="M523.0000000000001,1066.0000305175781H517.0000000000001V1065.0000305175781h6L523.0000000000001,1066.0000305175781L523.0000000000001,1066.0000305175781zM523.0000000000001,1064.0000305175781H517.0000000000001V1063.0000305175781h6V1064.0000305175781zM523.0000000000001,1062.0000305175781H517.0000000000001V1061.0000305175781h6V1062.0000305175781zM522.5000000000001,1068.0000305175781H516.0000000000001V1059.0000305175781h8v7.5M523.0000000000001,1069.0000305175781l2,-2V1058.0000305175781H515.0000000000001v11"></path></g></g><g id="kity_g_12"><path id="kity_path_13" fill="none" stroke="none" d="M469.5000000000001,1063.5000305175781h0v0h0z"></path></g><g id="kity_g_14"><path id="kity_path_15" fill="none" stroke="none" d="M469.5000000000001,1063.5000305175781h0v0h0z"></path><path id="kity_path_16" fill="none" stroke="none"></path></g><g id="minder_node2"><g id="node_expander26" style="cursor: pointer;"><path id="kity_path_514" fill="white" stroke="gray" d="M670.5000047047931,501.50001860724626A6,6,0,1,1,658.5000047047931,501.50001860724626A6,6,0,1,1,670.5000047047931,501.50001860724626"></path><path id="kity_path_515" fill="none" stroke="gray" d="M660.0000047047931,501.50001860724626L669.0000047047931,501.50001860724626"></path></g><path id="node_outline27" fill="rgb(238, 243, 246)" stroke="rgb(115, 161, 191)" d="M674.5000047047931,488.50001860724626h76a3,3,0,0,1,3,3v20a3,3,0,0,1,-3,3h-76a3,3,0,0,1,-3,-3v-20a3,3,0,0,1,3,-3z" stroke-width="1"></path><g id="node_text27" fill="black"><text id="kity_text_183" text-rendering="inherit" font-size="14" dy=".8em" y="492.4000187026137" x="691.5000047047931">计算机</text></g></g><g id="minder_node3"><g id="node_expander1" display="none" style="cursor: pointer;"><path id="kity_path_439" fill="white" stroke="gray" d="M793.5000076082015,34.50000871022644A6,6,0,1,1,781.5000076082015,34.50000871022644A6,6,0,1,1,793.5000076082015,34.50000871022644"></path><path id="kity_path_440" fill="none" stroke="gray"></path></g><path id="node_outline2" fill="none" stroke="none" d="M798.5000076082015,19.50000871022644h159a5,5,0,0,1,5,5v20a5,5,0,0,1,-5,5h-159a5,5,0,0,1,-5,-5v-20a5,5,0,0,1,5,-5z"></path><g id="node_text2" fill="black"><text id="kity_text_133" text-rendering="inherit" font-size="12" dy=".8em" y="26.70000875791016" x="828.5000076082015">linux多线程服务器编程</text></g><g id="node_progress1"><path id="kity_path_235" fill="#FFED83" stroke="none" d="M823.0000069035422,35.00000872082283A9,9,0,1,1,805.0000069035422,35.00000872082283A9,9,0,1,1,823.0000069035422,35.00000872082283"></path><path id="kity_path_236" fill="#43BC00" stroke="none" d="M814.0000069035422,35.00000872082283L823.0000069035422,35.00000872082283A9,9,0,0,0,807.6360458728632,28.636047690143897A9,9,0,0,0,814.0000069035422,44.00000872082283L814.0000069035422,35.00000872082283z"></path><path id="kity_path_237" fill="#8E8E8E" stroke="none" d="M814.0000069035422,28.00000872082283c4.418,0,8,3.582,8,8h1c0,-5.523,-3.477,-10,-9,-10S805.0000069035422,30.47700872082283,805.0000069035422,36.000008720822834h1C806.0000069035422,31.58200872082283,809.5820069035422,28.00000872082283,814.0000069035422,28.00000872082283z"></path><path id="kity_path_239" fill="#EEE" stroke="none" d="M829.8120069035422,42.89600872082283l-6.75,6.75l-4.5,-4.5L820.2500069035422,43.45900872082282l2.812,2.803l5.062,-5.053L829.8120069035422,42.89600872082283z" display="none"></path><path id="kity_path_238" fill="url(#kity_linearGradient_17)" stroke="none" d="M814.0000069035422,25.00000872082283C808.4770069035421,25.00000872082283,804.0000069035422,29.47700872082283,804.0000069035422,35.000008720822834c0,5.523,4.477,10,10,10s10,-4.477,10,-10C824.0000069035422,29.47700872082283,819.5230069035422,25.00000872082283,814.0000069035422,25.00000872082283zM814.0000069035422,43.000008720822834c-4.418,0,-8,-3.582,-8,-8s3.582,-8,8,-8s8,3.582,8,8S818.4180069035422,43.000008720822834,814.0000069035422,43.000008720822834z"></path></g></g><g id="minder_node4"><g id="node_expander6" style="cursor: pointer;"><path id="kity_path_454" fill="white" stroke="gray" d="M793.5000070783824,181.50001182556252A6,6,0,1,1,781.5000070783824,181.50001182556252A6,6,0,1,1,793.5000070783824,181.50001182556252"></path><path id="kity_path_455" fill="none" stroke="gray" d="M783.0000070783824,181.50001182556252L792.0000070783824,181.50001182556252"></path></g><path id="node_outline7" fill="none" stroke="none" d="M798.5000070783824,170.50001182556252h36a5,5,0,0,1,5,5v12a5,5,0,0,1,-5,5h-36a5,5,0,0,1,-5,-5v-12a5,5,0,0,1,5,-5z"></path><g id="node_text7" fill="black"><text id="kity_text_143" text-rendering="inherit" font-size="12" dy=".8em" y="173.70001187324624" x="803.5000070783824">C++</text></g></g><g id="minder_node5"><g id="node_expander2" display="none" style="cursor: pointer;"><path id="kity_path_442" fill="white" stroke="gray" d="M879.500009430779,94.50000998179223A6,6,0,1,1,867.500009430779,94.50000998179223A6,6,0,1,1,879.500009430779,94.50000998179223"></path><path id="kity_path_443" fill="none" stroke="gray"></path></g><path id="node_outline3" fill="none" stroke="none" d="M884.500009430779,79.50000998179223h96a5,5,0,0,1,5,5v20a5,5,0,0,1,-5,5h-96a5,5,0,0,1,-5,-5v-20a5,5,0,0,1,5,-5z"></path><g id="node_text3" fill="black"><text id="kity_text_135" text-rendering="inherit" font-size="12" dy=".8em" y="86.70001002947595" x="914.500009430779">stl源码剖析</text></g><g id="node_progress2"><path id="kity_path_241" fill="#FFED83" stroke="none" d="M909.0000087261196,95.00000999238861A9,9,0,1,1,891.0000087261196,95.00000999238861A9,9,0,1,1,909.0000087261196,95.00000999238861"></path><path id="kity_path_242" fill="#43BC00" stroke="none" d="M900.0000087261196,95.00000999238861L909.0000087261196,95.00000999238861A9,9,0,0,1,891.0000087261196,95.00000999238861A9,9,0,0,1,909.0000087261196,95.00000999238861L900.0000087261196,95.00000999238861z"></path><path id="kity_path_243" fill="#8E8E8E" stroke="none" d="M900.0000087261196,88.00000999238861c4.418,0,8,3.582,8,8h1c0,-5.523,-3.477,-10,-9,-10S891.0000087261196,90.47700999238862,891.0000087261196,96.00000999238861h1C892.0000087261196,91.5820099923886,895.5820087261196,88.00000999238861,900.0000087261196,88.00000999238861z"></path><path id="kity_path_245" fill="#EEE" stroke="none" d="M905.8120087261196,92.89600999238861l-6.75,6.75l-4.5,-4.5L896.2500087261196,93.45900999238862l2.812,2.803l5.062,-5.053L905.8120087261196,92.89600999238861z"></path><path id="kity_path_244" fill="url(#kity_linearGradient_17)" stroke="none" d="M900.0000087261196,85.00000999238861C894.4770087261196,85.00000999238861,890.0000087261196,89.47700999238862,890.0000087261196,95.00000999238861c0,5.523,4.477,10,10,10s10,-4.477,10,-10C910.0000087261196,89.47700999238862,905.5230087261197,85.00000999238861,900.0000087261196,85.00000999238861zM900.0000087261196,103.00000999238861c-4.418,0,-8,-3.582,-8,-8s3.582,-8,8,-8s8,3.582,8,8S904.4180087261196,103.00000999238861,900.0000087261196,103.00000999238861z"></path></g></g><g id="minder_node6"><g id="node_expander3" display="none" style="cursor: pointer;"><path id="kity_path_445" fill="white" stroke="gray" d="M879.50000890096,153.0000112109725A6,6,0,1,1,867.50000890096,153.0000112109725A6,6,0,1,1,879.50000890096,153.0000112109725"></path><path id="kity_path_446" fill="none" stroke="gray"></path></g><path id="node_outline4" fill="none" stroke="none" d="M884.50000890096,139.5000112109725h55a5,5,0,0,1,5,5v17a5,5,0,0,1,-5,5h-55a5,5,0,0,1,-5,-5v-17a5,5,0,0,1,5,-5z"></path><g id="node_text4" fill="black"><text id="kity_text_137" text-rendering="inherit" font-size="12" dy=".8em" y="144.70001125865622" x="889.50000890096">已读</text></g><g id="kity_g_378" style="cursor: pointer;"><path id="kity_path_379" fill="none" stroke="none" d="M921.00000890096,144.0000112109725h12a2,2,0,0,1,2,2v13a2,2,0,0,1,-2,2h-12a2,2,0,0,1,-2,-2v-13a2,2,0,0,1,2,-2z"></path><path id="kity_path_380" fill="black" stroke="none" d="M930.00000890096,155.0000112109725H924.00000890096V154.0000112109725h6L930.00000890096,155.0000112109725L930.00000890096,155.0000112109725zM930.00000890096,153.0000112109725H924.00000890096V152.0000112109725h6V153.0000112109725zM930.00000890096,151.0000112109725H924.00000890096V150.0000112109725h6V151.0000112109725zM929.50000890096,157.0000112109725H923.00000890096V148.0000112109725h8v7.5M930.00000890096,158.0000112109725l2,-2V147.0000112109725H922.00000890096v11"></path></g></g><g id="minder_node7"><g id="node_expander4" display="none" style="cursor: pointer;"><path id="kity_path_448" fill="white" stroke="gray" d="M879.50000890096,210.00001241895995A6,6,0,1,1,867.50000890096,210.00001241895995A6,6,0,1,1,879.50000890096,210.00001241895995"></path><path id="kity_path_449" fill="none" stroke="gray"></path></g><path id="node_outline5" fill="none" stroke="none" d="M884.50000890096,196.50001241895995h64a5,5,0,0,1,5,5v17a5,5,0,0,1,-5,5h-64a5,5,0,0,1,-5,-5v-17a5,5,0,0,1,5,-5z"></path><g id="node_text5" fill="black"><text id="kity_text_139" text-rendering="inherit" font-size="12" dy=".8em" y="201.70001246664367" x="889.50000890096">C部分</text></g><g id="kity_g_381" style="cursor: pointer;"><path id="kity_path_382" fill="none" stroke="none" d="M930.0000127156572,201.00001241895995h12a2,2,0,0,1,2,2v13a2,2,0,0,1,-2,2h-12a2,2,0,0,1,-2,-2v-13a2,2,0,0,1,2,-2z"></path><path id="kity_path_383" fill="black" stroke="none" d="M939.0000127156572,212.00001241895995H933.0000127156572V211.00001241895995h6L939.0000127156572,212.00001241895995L939.0000127156572,212.00001241895995zM939.0000127156572,210.00001241895995H933.0000127156572V209.00001241895995h6V210.00001241895995zM939.0000127156572,208.00001241895995H933.0000127156572V207.00001241895995h6V208.00001241895995zM938.5000127156572,214.00001241895995H932.0000127156572V205.00001241895995h8v7.5M939.0000127156572,215.00001241895995l2,-2V204.00001241895995H931.0000127156572v11"></path></g></g><g id="minder_node8"><g id="node_expander5" display="none" style="cursor: pointer;"><path id="kity_path_451" fill="white" stroke="gray" d="M879.500009430779,268.50001366933293A6,6,0,1,1,867.500009430779,268.50001366933293A6,6,0,1,1,879.500009430779,268.50001366933293"></path><path id="kity_path_452" fill="none" stroke="gray"></path></g><path id="node_outline6" fill="none" stroke="none" d="M884.500009430779,253.50001366933293h97a5,5,0,0,1,5,5v20a5,5,0,0,1,-5,5h-97a5,5,0,0,1,-5,-5v-20a5,5,0,0,1,5,-5z"></path><g id="node_text6" fill="black"><text id="kity_text_141" text-rendering="inherit" font-size="12" dy=".8em" y="260.70001371701665" x="914.500009430779">C++沉思录</text></g><g id="node_progress3"><path id="kity_path_247" fill="#FFED83" stroke="none" d="M909.0000087261196,269.00001367992934A9,9,0,1,1,891.0000087261196,269.00001367992934A9,9,0,1,1,909.0000087261196,269.00001367992934"></path><path id="kity_path_248" fill="#43BC00" stroke="none" d="M900.0000087261196,269.00001367992934L909.0000087261196,269.00001367992934A9,9,0,0,0,908.3149245187212,265.55586278864354A9,9,0,0,0,906.3639697567986,262.6360526492504L900.0000087261196,269.00001367992934z"></path><path id="kity_path_249" fill="#8E8E8E" stroke="none" d="M900.0000087261196,262.00001367992934c4.418,0,8,3.582,8,8h1c0,-5.523,-3.477,-10,-9,-10S891.0000087261196,264.4770136799293,891.0000087261196,270.00001367992934h1C892.0000087261196,265.58201367992933,895.5820087261196,262.00001367992934,900.0000087261196,262.00001367992934z"></path><path id="kity_path_251" fill="#EEE" stroke="none" d="M915.8120087261196,276.89601367992935l-6.75,6.75l-4.5,-4.5L906.2500087261196,277.45901367992934l2.812,2.803l5.062,-5.053L915.8120087261196,276.89601367992935z" display="none"></path><path id="kity_path_250" fill="url(#kity_linearGradient_17)" stroke="none" d="M900.0000087261196,259.00001367992934C894.4770087261196,259.00001367992934,890.0000087261196,263.4770136799293,890.0000087261196,269.00001367992934c0,5.523,4.477,10,10,10s10,-4.477,10,-10C910.0000087261196,263.4770136799293,905.5230087261197,259.00001367992934,900.0000087261196,259.00001367992934zM900.0000087261196,277.00001367992934c-4.418,0,-8,-3.582,-8,-8s3.582,-8,8,-8s8,3.582,8,8S904.4180087261196,277.00001367992934,900.0000087261196,277.00001367992934z"></path></g></g><g id="minder_node9"><g id="node_expander9" style="cursor: pointer;"><path id="kity_path_463" fill="white" stroke="gray" d="M793.5000070783824,354.5000154919103A6,6,0,1,1,781.5000070783824,354.5000154919103A6,6,0,1,1,793.5000070783824,354.5000154919103"></path><path id="kity_path_464" fill="none" stroke="gray" d="M783.0000070783824,354.5000154919103L792.0000070783824,354.5000154919103"></path></g><path id="node_outline10" fill="none" stroke="none" d="M798.5000070783824,343.5000154919103h35a5,5,0,0,1,5,5v12a5,5,0,0,1,-5,5h-35a5,5,0,0,1,-5,-5v-12a5,5,0,0,1,5,-5z"></path><g id="node_text10" fill="black"><text id="kity_text_149" text-rendering="inherit" font-size="12" dy=".8em" y="346.700015539594" x="803.5000070783824">GPU</text></g></g><g id="minder_node10"><g id="node_expander7" display="none" style="cursor: pointer;"><path id="kity_path_457" fill="white" stroke="gray" d="M892.5000091764658,332.50001502566965A6,6,0,1,1,880.5000091764658,332.50001502566965A6,6,0,1,1,892.5000091764658,332.50001502566965"></path><path id="kity_path_458" fill="none" stroke="gray"></path></g><path id="node_outline8" fill="none" stroke="none" d="M897.5000091764658,321.50001502566965h62a5,5,0,0,1,5,5v12a5,5,0,0,1,-5,5h-62a5,5,0,0,1,-5,-5v-12a5,5,0,0,1,5,-5z"></path><g id="node_text8" fill="black"><text id="kity_text_145" text-rendering="inherit" font-size="12" dy=".8em" y="324.70001507335337" x="902.5000091764658">cuda入门</text></g></g><g id="minder_node11"><g id="node_expander8" display="none" style="cursor: pointer;"><path id="kity_path_460" fill="white" stroke="gray" d="M878.5000094095863,380.5000160429222A6,6,0,1,1,866.5000094095863,380.5000160429222A6,6,0,1,1,878.5000094095863,380.5000160429222"></path><path id="kity_path_461" fill="none" stroke="gray"></path></g><path id="node_outline9" fill="none" stroke="none" d="M883.5000094095863,365.5000160429222h125a5,5,0,0,1,5,5v20a5,5,0,0,1,-5,5h-125a5,5,0,0,1,-5,-5v-20a5,5,0,0,1,5,-5z"></path><g id="node_text9" fill="black"><text id="kity_text_147" text-rendering="inherit" font-size="12" dy=".8em" y="372.7000160906059" x="913.5000094095863">Opencl中文教程</text></g><g id="node_progress4"><path id="kity_path_253" fill="#FFED83" stroke="none" d="M908.0000087049269,381.0000160535186A9,9,0,1,1,890.0000087049269,381.0000160535186A9,9,0,1,1,908.0000087049269,381.0000160535186"></path><path id="kity_path_254" fill="#43BC00" stroke="none" d="M899.0000087049269,381.0000160535186L908.0000087049269,381.0000160535186A9,9,0,0,0,892.636047674248,374.6360550228397A9,9,0,0,0,899.0000087049269,390.0000160535186L899.0000087049269,381.0000160535186z"></path><path id="kity_path_255" fill="#8E8E8E" stroke="none" d="M899.0000087049269,374.0000160535186c4.418,0,8,3.582,8,8h1c0,-5.523,-3.477,-10,-9,-10S890.0000087049269,376.4770160535186,890.0000087049269,382.0000160535186h1C891.0000087049269,377.5820160535186,894.5820087049269,374.0000160535186,899.0000087049269,374.0000160535186z"></path><path id="kity_path_257" fill="#EEE" stroke="none" d="M914.8120087049269,388.8960160535186l-6.75,6.75l-4.5,-4.5L905.2500087049269,389.4590160535186l2.812,2.803l5.062,-5.053L914.8120087049269,388.8960160535186z" display="none"></path><path id="kity_path_256" fill="url(#kity_linearGradient_17)" stroke="none" d="M899.0000087049269,371.0000160535186C893.4770087049269,371.0000160535186,889.0000087049269,375.4770160535186,889.0000087049269,381.0000160535186c0,5.523,4.477,10,10,10s10,-4.477,10,-10C909.0000087049269,375.4770160535186,904.523008704927,371.0000160535186,899.0000087049269,371.0000160535186zM899.0000087049269,389.0000160535186c-4.418,0,-8,-3.582,-8,-8s3.582,-8,8,-8s8,3.582,8,8S903.4180087049269,389.0000160535186,899.0000087049269,389.0000160535186z"></path></g></g><g id="minder_node12"><g id="node_expander12" style="cursor: pointer;"><path id="kity_path_472" fill="white" stroke="gray" d="M793.5000070783824,470.5000179502705A6,6,0,1,1,781.5000070783824,470.5000179502705A6,6,0,1,1,793.5000070783824,470.5000179502705"></path><path id="kity_path_473" fill="none" stroke="gray" d="M783.0000070783824,470.5000179502705L792.0000070783824,470.5000179502705"></path></g><path id="node_outline13" fill="none" stroke="none" d="M798.5000070783824,459.5000179502705h35a5,5,0,0,1,5,5v12a5,5,0,0,1,-5,5h-35a5,5,0,0,1,-5,-5v-12a5,5,0,0,1,5,-5z"></path><g id="node_text13" fill="black"><text id="kity_text_155" text-rendering="inherit" font-size="12" dy=".8em" y="462.7000179979542" x="803.5000070783824">渲染</text></g></g><g id="minder_node13"><g id="node_expander10" display="none" style="cursor: pointer;"><path id="kity_path_466" fill="white" stroke="gray" d="M878.5000094095863,440.50001731448776A6,6,0,1,1,866.5000094095863,440.50001731448776A6,6,0,1,1,878.5000094095863,440.50001731448776"></path><path id="kity_path_467" fill="none" stroke="gray"></path></g><path id="node_outline11" fill="none" stroke="none" d="M883.5000094095863,425.50001731448776h125a5,5,0,0,1,5,5v20a5,5,0,0,1,-5,5h-125a5,5,0,0,1,-5,-5v-20a5,5,0,0,1,5,-5z"></path><g id="node_text11" fill="black"><text id="kity_text_151" text-rendering="inherit" font-size="12" dy=".8em" y="432.7000173621715" x="913.5000094095863">WebGL编程指南</text></g><g id="node_progress5"><path id="kity_path_259" fill="#FFED83" stroke="none" d="M908.0000087049269,441.0000173250842A9,9,0,1,1,890.0000087049269,441.0000173250842A9,9,0,1,1,908.0000087049269,441.0000173250842"></path><path id="kity_path_260" fill="#43BC00" stroke="none" d="M899.0000087049269,441.0000173250842L908.0000087049269,441.0000173250842A9,9,0,0,0,907.3149244975285,437.55586643379837A9,9,0,0,0,905.3639697356059,434.63605629440525L899.0000087049269,441.0000173250842z"></path><path id="kity_path_261" fill="#8E8E8E" stroke="none" d="M899.0000087049269,434.0000173250842c4.418,0,8,3.582,8,8h1c0,-5.523,-3.477,-10,-9,-10S890.0000087049269,436.47701732508415,890.0000087049269,442.0000173250842h1C891.0000087049269,437.58201732508417,894.5820087049269,434.0000173250842,899.0000087049269,434.0000173250842z"></path><path id="kity_path_263" fill="#EEE" stroke="none" d="M914.8120087049269,448.8960173250842l-6.75,6.75l-4.5,-4.5L905.2500087049269,449.4590173250842l2.812,2.803l5.062,-5.053L914.8120087049269,448.8960173250842z" display="none"></path><path id="kity_path_262" fill="url(#kity_linearGradient_17)" stroke="none" d="M899.0000087049269,431.0000173250842C893.4770087049269,431.0000173250842,889.0000087049269,435.47701732508415,889.0000087049269,441.0000173250842c0,5.523,4.477,10,10,10s10,-4.477,10,-10C909.0000087049269,435.47701732508415,904.523008704927,431.0000173250842,899.0000087049269,431.0000173250842zM899.0000087049269,449.0000173250842c-4.418,0,-8,-3.582,-8,-8s3.582,-8,8,-8s8,3.582,8,8S903.4180087049269,449.0000173250842,899.0000087049269,449.0000173250842z"></path></g></g><g id="minder_node14"><g id="node_expander11" display="none" style="cursor: pointer;"><path id="kity_path_469" fill="white" stroke="gray" d="M878.5000094095863,500.50001858605367A6,6,0,1,1,866.5000094095863,500.50001858605367A6,6,0,1,1,878.5000094095863,500.50001858605367"></path><path id="kity_path_470" fill="none" stroke="gray"></path></g><path id="node_outline12" fill="none" stroke="none" d="M883.5000094095863,485.50001858605367h126a5,5,0,0,1,5,5v20a5,5,0,0,1,-5,5h-126a5,5,0,0,1,-5,-5v-20a5,5,0,0,1,5,-5z"></path><g id="node_text12" fill="black"><text id="kity_text_153" text-rendering="inherit" font-size="12" dy=".8em" y="492.7000186337374" x="913.5000094095863">opengl learning</text></g><g id="node_progress6"><path id="kity_path_265" fill="#FFED83" stroke="none" d="M908.0000087049269,501.0000185966501A9,9,0,1,1,890.0000087049269,501.0000185966501A9,9,0,1,1,908.0000087049269,501.0000185966501"></path><path id="kity_path_266" fill="#43BC00" stroke="none" d="M899.0000087049269,501.0000185966501L908.0000087049269,501.0000185966501A9,9,0,0,0,905.3639697356059,494.63605756597116A9,9,0,0,0,899.0000087049269,492.0000185966501L899.0000087049269,501.0000185966501z"></path><path id="kity_path_267" fill="#8E8E8E" stroke="none" d="M899.0000087049269,494.0000185966501c4.418,0,8,3.582,8,8h1c0,-5.523,-3.477,-10,-9,-10S890.0000087049269,496.47701859665005,890.0000087049269,502.0000185966501h1C891.0000087049269,497.5820185966501,894.5820087049269,494.0000185966501,899.0000087049269,494.0000185966501z"></path><path id="kity_path_269" fill="#EEE" stroke="none" d="M914.8120087049269,508.8960185966501l-6.75,6.75l-4.5,-4.5L905.2500087049269,509.4590185966501l2.812,2.803l5.062,-5.053L914.8120087049269,508.8960185966501z" display="none"></path><path id="kity_path_268" fill="url(#kity_linearGradient_17)" stroke="none" d="M899.0000087049269,491.0000185966501C893.4770087049269,491.0000185966501,889.0000087049269,495.47701859665005,889.0000087049269,501.0000185966501c0,5.523,4.477,10,10,10s10,-4.477,10,-10C909.0000087049269,495.47701859665005,904.523008704927,491.0000185966501,899.0000087049269,491.0000185966501zM899.0000087049269,509.0000185966501c-4.418,0,-8,-3.582,-8,-8s3.582,-8,8,-8s8,3.582,8,8S903.4180087049269,509.0000185966501,899.0000087049269,509.0000185966501z"></path></g></g><g id="minder_node15"><g id="node_expander15" style="cursor: pointer;"><path id="kity_path_481" fill="white" stroke="gray" d="M793.5000070783824,586.5000204086309A6,6,0,1,1,781.5000070783824,586.5000204086309A6,6,0,1,1,793.5000070783824,586.5000204086309"></path><path id="kity_path_482" fill="none" stroke="gray" d="M783.0000070783824,586.5000204086309L792.0000070783824,586.5000204086309"></path></g><path id="node_outline16" fill="none" stroke="none" d="M798.5000070783824,575.5000204086309h34a5,5,0,0,1,5,5v12a5,5,0,0,1,-5,5h-34a5,5,0,0,1,-5,-5v-12a5,5,0,0,1,5,-5z"></path><g id="node_text16" fill="black"><text id="kity_text_161" text-rendering="inherit" font-size="12" dy=".8em" y="578.7000204563146" x="803.5000070783824">架构</text></g></g><g id="minder_node16"><g id="node_expander13" display="none" style="cursor: pointer;"><path id="kity_path_475" fill="white" stroke="gray" d="M877.5000088585743,556.5000197728481A6,6,0,1,1,865.5000088585743,556.5000197728481A6,6,0,1,1,877.5000088585743,556.5000197728481"></path><path id="kity_path_476" fill="none" stroke="gray"></path></g><path id="node_outline14" fill="none" stroke="none" d="M882.5000088585743,545.5000197728481h135a5,5,0,0,1,5,5v12a5,5,0,0,1,-5,5h-135a5,5,0,0,1,-5,-5v-12a5,5,0,0,1,5,-5z"></path><g id="node_text14" fill="black"><text id="kity_text_157" text-rendering="inherit" font-size="12" dy=".8em" y="548.7000198205318" x="887.5000088585743">Clean-Architecture-zh</text></g></g><g id="minder_node17"><g id="node_expander14" display="none" style="cursor: pointer;"><path id="kity_path_478" fill="white" stroke="gray" d="M877.5000093883934,612.5000209596427A6,6,0,1,1,865.5000093883934,612.5000209596427A6,6,0,1,1,877.5000093883934,612.5000209596427"></path><path id="kity_path_479" fill="none" stroke="gray"></path></g><path id="node_outline15" fill="none" stroke="none" d="M882.5000093883934,597.5000209596427h83a5,5,0,0,1,5,5v20a5,5,0,0,1,-5,5h-83a5,5,0,0,1,-5,-5v-20a5,5,0,0,1,5,-5z"></path><g id="node_text15" fill="black"><text id="kity_text_159" text-rendering="inherit" font-size="12" dy=".8em" y="604.7000210073264" x="912.5000093883934">人月神话</text></g><g id="node_progress7"><path id="kity_path_271" fill="#FFED83" stroke="none" d="M907.0000086837341,613.0000209702391A9,9,0,1,1,889.0000086837341,613.0000209702391A9,9,0,1,1,907.0000086837341,613.0000209702391"></path><path id="kity_path_272" fill="#43BC00" stroke="none" d="M898.0000086837341,613.0000209702391L907.0000086837341,613.0000209702391A9,9,0,0,0,906.3149244763357,609.5558700789533A9,9,0,0,0,904.3639697144131,606.6360599395601L898.0000086837341,613.0000209702391z"></path><path id="kity_path_273" fill="#8E8E8E" stroke="none" d="M898.0000086837341,606.0000209702391c4.418,0,8,3.582,8,8h1c0,-5.523,-3.477,-10,-9,-10S889.0000086837341,608.4770209702391,889.0000086837341,614.0000209702391h1C890.0000086837341,609.5820209702391,893.5820086837341,606.0000209702391,898.0000086837341,606.0000209702391z"></path><path id="kity_path_275" fill="#EEE" stroke="none" d="M913.8120086837341,620.8960209702391l-6.75,6.75l-4.5,-4.5L904.2500086837341,621.4590209702391l2.812,2.803l5.062,-5.053L913.8120086837341,620.8960209702391z" display="none"></path><path id="kity_path_274" fill="url(#kity_linearGradient_17)" stroke="none" d="M898.0000086837341,603.0000209702391C892.4770086837341,603.0000209702391,888.0000086837341,607.4770209702391,888.0000086837341,613.0000209702391c0,5.523,4.477,10,10,10s10,-4.477,10,-10C908.0000086837341,607.4770209702391,903.5230086837341,603.0000209702391,898.0000086837341,603.0000209702391zM898.0000086837341,621.0000209702391c-4.418,0,-8,-3.582,-8,-8s3.582,-8,8,-8s8,3.582,8,8S902.4180086837341,621.0000209702391,898.0000086837341,621.0000209702391z"></path></g></g><g id="minder_node18"><g id="node_expander19" style="cursor: pointer;"><path id="kity_path_493" fill="white" stroke="gray" d="M793.5000070783824,732.5000235027742A6,6,0,1,1,781.5000070783824,732.5000235027742A6,6,0,1,1,793.5000070783824,732.5000235027742"></path><path id="kity_path_494" fill="none" stroke="gray" d="M783.0000070783824,732.5000235027742L792.0000070783824,732.5000235027742"></path></g><path id="node_outline20" fill="none" stroke="none" d="M798.5000070783824,721.5000235027742h59a5,5,0,0,1,5,5v12a5,5,0,0,1,-5,5h-59a5,5,0,0,1,-5,-5v-12a5,5,0,0,1,5,-5z"></path><g id="node_text20" fill="black"><text id="kity_text_169" text-rendering="inherit" font-size="12" dy=".8em" y="724.7000235504579" x="803.5000070783824">操作系统</text></g></g><g id="minder_node19"><g id="node_expander16" display="none" style="cursor: pointer;"><path id="kity_path_484" fill="white" stroke="gray" d="M902.5000099182125,672.5000222312084A6,6,0,1,1,890.5000099182125,672.5000222312084A6,6,0,1,1,902.5000099182125,672.5000222312084"></path><path id="kity_path_485" fill="none" stroke="gray"></path></g><path id="node_outline17" fill="none" stroke="none" d="M907.5000099182125,657.5000222312084h143a5,5,0,0,1,5,5v20a5,5,0,0,1,-5,5h-143a5,5,0,0,1,-5,-5v-20a5,5,0,0,1,5,-5z"></path><g id="node_text17" fill="black"><text id="kity_text_163" text-rendering="inherit" font-size="12" dy=".8em" y="664.7000222788921" x="937.5000099182125">深入理解计算机系统</text></g><g id="node_progress8"><path id="kity_path_277" fill="#FFED83" stroke="none" d="M932.0000092135532,673.0000222418048A9,9,0,1,1,914.0000092135532,673.0000222418048A9,9,0,1,1,932.0000092135532,673.0000222418048"></path><path id="kity_path_278" fill="#43BC00" stroke="none" d="M923.0000092135532,673.0000222418048L932.0000092135532,673.0000222418048A9,9,0,0,0,923.0000092135532,664.0000222418048A9,9,0,0,0,914.0000092135532,673.0000222418048L923.0000092135532,673.0000222418048z"></path><path id="kity_path_279" fill="#8E8E8E" stroke="none" d="M923.0000092135532,666.0000222418048c4.418,0,8,3.582,8,8h1c0,-5.523,-3.477,-10,-9,-10S914.0000092135532,668.4770222418048,914.0000092135532,674.0000222418048h1C915.0000092135532,669.5820222418048,918.5820092135532,666.0000222418048,923.0000092135532,666.0000222418048z"></path><path id="kity_path_281" fill="#EEE" stroke="none" d="M938.8120092135532,680.8960222418048l-6.75,6.75l-4.5,-4.5L929.2500092135532,681.4590222418047l2.812,2.803l5.062,-5.053L938.8120092135532,680.8960222418048z" display="none"></path><path id="kity_path_280" fill="url(#kity_linearGradient_17)" stroke="none" d="M923.0000092135532,663.0000222418048C917.4770092135532,663.0000222418048,913.0000092135532,667.4770222418048,913.0000092135532,673.0000222418048c0,5.523,4.477,10,10,10s10,-4.477,10,-10C933.0000092135532,667.4770222418048,928.5230092135532,663.0000222418048,923.0000092135532,663.0000222418048zM923.0000092135532,681.0000222418048c-4.418,0,-8,-3.582,-8,-8s3.582,-8,8,-8s8,3.582,8,8S927.4180092135532,681.0000222418048,923.0000092135532,681.0000222418048z"></path></g></g><g id="minder_node20"><g id="node_expander17" display="none" style="cursor: pointer;"><path id="kity_path_487" fill="white" stroke="gray" d="M902.5000099182125,732.5000235027742A6,6,0,1,1,890.5000099182125,732.5000235027742A6,6,0,1,1,902.5000099182125,732.5000235027742"></path><path id="kity_path_488" fill="none" stroke="gray"></path></g><path id="node_outline18" fill="none" stroke="none" d="M907.5000099182125,717.5000235027742h132a5,5,0,0,1,5,5v20a5,5,0,0,1,-5,5h-132a5,5,0,0,1,-5,-5v-20a5,5,0,0,1,5,-5z"></path><g id="node_text18" fill="black"><text id="kity_text_165" text-rendering="inherit" font-size="12" dy=".8em" y="724.7000235504579" x="937.5000099182125">程序员的自我修养</text></g><g id="node_progress9"><path id="kity_path_283" fill="#FFED83" stroke="none" d="M932.0000092135532,733.0000235133706A9,9,0,1,1,914.0000092135532,733.0000235133706A9,9,0,1,1,932.0000092135532,733.0000235133706"></path><path id="kity_path_284" fill="#43BC00" stroke="none" d="M923.0000092135532,733.0000235133706L932.0000092135532,733.0000235133706A9,9,0,0,1,914.0000092135532,733.0000235133706A9,9,0,0,1,932.0000092135532,733.0000235133706L923.0000092135532,733.0000235133706z"></path><path id="kity_path_285" fill="#8E8E8E" stroke="none" d="M923.0000092135532,726.0000235133706c4.418,0,8,3.582,8,8h1c0,-5.523,-3.477,-10,-9,-10S914.0000092135532,728.4770235133706,914.0000092135532,734.0000235133706h1C915.0000092135532,729.5820235133706,918.5820092135532,726.0000235133706,923.0000092135532,726.0000235133706z"></path><path id="kity_path_287" fill="#EEE" stroke="none" d="M928.8120092135532,730.8960235133706l-6.75,6.75l-4.5,-4.5L919.2500092135532,731.4590235133705l2.812,2.803l5.062,-5.053L928.8120092135532,730.8960235133706z"></path><path id="kity_path_286" fill="url(#kity_linearGradient_17)" stroke="none" d="M923.0000092135532,723.0000235133706C917.4770092135532,723.0000235133706,913.0000092135532,727.4770235133706,913.0000092135532,733.0000235133706c0,5.523,4.477,10,10,10s10,-4.477,10,-10C933.0000092135532,727.4770235133706,928.5230092135532,723.0000235133706,923.0000092135532,723.0000235133706zM923.0000092135532,741.0000235133706c-4.418,0,-8,-3.582,-8,-8s3.582,-8,8,-8s8,3.582,8,8S927.4180092135532,741.0000235133706,923.0000092135532,741.0000235133706z"></path></g></g><g id="minder_node21"><g id="node_expander18" display="none" style="cursor: pointer;"><path id="kity_path_490" fill="white" stroke="gray" d="M902.5000099182125,792.5000247743397A6,6,0,1,1,890.5000099182125,792.5000247743397A6,6,0,1,1,902.5000099182125,792.5000247743397"></path><path id="kity_path_491" fill="none" stroke="gray"></path></g><path id="node_outline19" fill="none" stroke="none" d="M907.5000099182125,777.5000247743397h134a5,5,0,0,1,5,5v20a5,5,0,0,1,-5,5h-134a5,5,0,0,1,-5,-5v-20a5,5,0,0,1,5,-5z"></path><g id="node_text19" fill="black"><text id="kity_text_167" text-rendering="inherit" font-size="12" dy=".8em" y="784.7000248220235" x="937.5000099182125">windows核心编程</text></g><g id="node_progress10"><path id="kity_path_289" fill="#FFED83" stroke="none" d="M932.0000092135532,793.0000247849362A9,9,0,1,1,914.0000092135532,793.0000247849362A9,9,0,1,1,932.0000092135532,793.0000247849362"></path><path id="kity_path_290" fill="#43BC00" stroke="none" d="M923.0000092135532,793.0000247849362L932.0000092135532,793.0000247849362A9,9,0,0,0,929.3639702442322,786.6360637542572A9,9,0,0,0,923.0000092135532,784.0000247849362L923.0000092135532,793.0000247849362z"></path><path id="kity_path_291" fill="#8E8E8E" stroke="none" d="M923.0000092135532,786.0000247849362c4.418,0,8,3.582,8,8h1c0,-5.523,-3.477,-10,-9,-10S914.0000092135532,788.4770247849361,914.0000092135532,794.0000247849362h1C915.0000092135532,789.5820247849362,918.5820092135532,786.0000247849362,923.0000092135532,786.0000247849362z"></path><path id="kity_path_293" fill="#EEE" stroke="none" d="M938.8120092135532,800.8960247849361l-6.75,6.75l-4.5,-4.5L929.2500092135532,801.4590247849361l2.812,2.803l5.062,-5.053L938.8120092135532,800.8960247849361z" display="none"></path><path id="kity_path_292" fill="url(#kity_linearGradient_17)" stroke="none" d="M923.0000092135532,783.0000247849362C917.4770092135532,783.0000247849362,913.0000092135532,787.4770247849361,913.0000092135532,793.0000247849362c0,5.523,4.477,10,10,10s10,-4.477,10,-10C933.0000092135532,787.4770247849361,928.5230092135532,783.0000247849362,923.0000092135532,783.0000247849362zM923.0000092135532,801.0000247849362c-4.418,0,-8,-3.582,-8,-8s3.582,-8,8,-8s8,3.582,8,8S927.4180092135532,801.0000247849362,923.0000092135532,801.0000247849362z"></path></g></g><g id="minder_node22"><g id="node_expander21" style="cursor: pointer;"><path id="kity_path_499" fill="white" stroke="gray" d="M793.5000070783824,852.5000260459054A6,6,0,1,1,781.5000070783824,852.5000260459054A6,6,0,1,1,793.5000070783824,852.5000260459054"></path><path id="kity_path_500" fill="none" stroke="gray" d="M783.0000070783824,852.5000260459054L792.0000070783824,852.5000260459054"></path></g><path id="node_outline22" fill="none" stroke="none" d="M798.5000070783824,841.5000260459054h51a5,5,0,0,1,5,5v12a5,5,0,0,1,-5,5h-51a5,5,0,0,1,-5,-5v-12a5,5,0,0,1,5,-5z"></path><g id="node_text22" fill="black"><text id="kity_text_173" text-rendering="inherit" font-size="12" dy=".8em" y="844.7000260935891" x="803.5000070783824">python</text></g></g><g id="minder_node23"><g id="node_expander20" display="none" style="cursor: pointer;"><path id="kity_path_496" fill="white" stroke="gray" d="M894.5000097486704,852.5000260459054A6,6,0,1,1,882.5000097486704,852.5000260459054A6,6,0,1,1,894.5000097486704,852.5000260459054"></path><path id="kity_path_497" fill="none" stroke="gray"></path></g><path id="node_outline21" fill="none" stroke="none" d="M899.5000097486704,837.5000260459054h125a5,5,0,0,1,5,5v20a5,5,0,0,1,-5,5h-125a5,5,0,0,1,-5,-5v-20a5,5,0,0,1,5,-5z"></path><g id="node_text21" fill="black"><text id="kity_text_171" text-rendering="inherit" font-size="12" dy=".8em" y="844.7000260935891" x="929.5000097486704">python高级编程</text></g><g id="node_progress11"><path id="kity_path_295" fill="#FFED83" stroke="none" d="M924.0000090440111,853.0000260565018A9,9,0,1,1,906.0000090440111,853.0000260565018A9,9,0,1,1,924.0000090440111,853.0000260565018"></path><path id="kity_path_296" fill="#43BC00" stroke="none" d="M915.0000090440111,853.0000260565018L924.0000090440111,853.0000260565018A9,9,0,0,0,915.0000090440111,844.0000260565018A9,9,0,0,0,906.0000090440111,853.0000260565018L915.0000090440111,853.0000260565018z"></path><path id="kity_path_297" fill="#8E8E8E" stroke="none" d="M915.0000090440111,846.0000260565018c4.418,0,8,3.582,8,8h1c0,-5.523,-3.477,-10,-9,-10S906.0000090440111,848.4770260565018,906.0000090440111,854.0000260565018h1C907.0000090440111,849.5820260565018,910.5820090440111,846.0000260565018,915.0000090440111,846.0000260565018z"></path><path id="kity_path_299" fill="#EEE" stroke="none" d="M930.8120090440111,860.8960260565018l-6.75,6.75l-4.5,-4.5L921.2500090440111,861.4590260565018l2.812,2.803l5.062,-5.053L930.8120090440111,860.8960260565018z" display="none"></path><path id="kity_path_298" fill="url(#kity_linearGradient_17)" stroke="none" d="M915.0000090440111,843.0000260565018C909.4770090440111,843.0000260565018,905.0000090440111,847.4770260565018,905.0000090440111,853.0000260565018c0,5.523,4.477,10,10,10s10,-4.477,10,-10C925.0000090440111,847.4770260565018,920.5230090440111,843.0000260565018,915.0000090440111,843.0000260565018zM915.0000090440111,861.0000260565018c-4.418,0,-8,-3.582,-8,-8s3.582,-8,8,-8s8,3.582,8,8S919.4180090440111,861.0000260565018,915.0000090440111,861.0000260565018z"></path></g></g><g id="minder_node24"><g id="node_expander25" style="cursor: pointer;"><path id="kity_path_511" fill="white" stroke="gray" d="M793.5000070783824,972.5000285890368A6,6,0,1,1,781.5000070783824,972.5000285890368A6,6,0,1,1,793.5000070783824,972.5000285890368"></path><path id="kity_path_512" fill="none" stroke="gray" d="M783.0000070783824,972.5000285890368L792.0000070783824,972.5000285890368"></path></g><path id="node_outline26" fill="none" stroke="none" d="M798.5000070783824,961.5000285890368h34a5,5,0,0,1,5,5v12a5,5,0,0,1,-5,5h-34a5,5,0,0,1,-5,-5v-12a5,5,0,0,1,5,-5z"></path><g id="node_text26" fill="black"><text id="kity_text_181" text-rendering="inherit" font-size="12" dy=".8em" y="964.7000286367205" x="803.5000070783824">网络</text></g></g><g id="minder_node25"><g id="node_expander22" display="none" style="cursor: pointer;"><path id="kity_path_502" fill="white" stroke="gray" d="M877.5000093883934,912.5000273174711A6,6,0,1,1,865.5000093883934,912.5000273174711A6,6,0,1,1,877.5000093883934,912.5000273174711"></path><path id="kity_path_503" fill="none" stroke="gray"></path></g><path id="node_outline23" fill="none" stroke="none" d="M882.5000093883934,897.5000273174711h83a5,5,0,0,1,5,5v20a5,5,0,0,1,-5,5h-83a5,5,0,0,1,-5,-5v-20a5,5,0,0,1,5,-5z"></path><g id="node_text23" fill="black"><text id="kity_text_175" text-rendering="inherit" font-size="12" dy=".8em" y="904.7000273651548" x="912.5000093883934">图解http</text></g><g id="node_progress12"><path id="kity_path_301" fill="#FFED83" stroke="none" d="M907.0000086837341,913.0000273280675A9,9,0,1,1,889.0000086837341,913.0000273280675A9,9,0,1,1,907.0000086837341,913.0000273280675"></path><path id="kity_path_302" fill="#43BC00" stroke="none" d="M898.0000086837341,913.0000273280675L907.0000086837341,913.0000273280675A9,9,0,0,1,889.0000086837341,913.0000273280675A9,9,0,0,1,907.0000086837341,913.0000273280675L898.0000086837341,913.0000273280675z"></path><path id="kity_path_303" fill="#8E8E8E" stroke="none" d="M898.0000086837341,906.0000273280675c4.418,0,8,3.582,8,8h1c0,-5.523,-3.477,-10,-9,-10S889.0000086837341,908.4770273280675,889.0000086837341,914.0000273280675h1C890.0000086837341,909.5820273280675,893.5820086837341,906.0000273280675,898.0000086837341,906.0000273280675z"></path><path id="kity_path_305" fill="#EEE" stroke="none" d="M903.8120086837341,910.8960273280675l-6.75,6.75l-4.5,-4.5L894.2500086837341,911.4590273280675l2.812,2.803l5.062,-5.053L903.8120086837341,910.8960273280675z"></path><path id="kity_path_304" fill="url(#kity_linearGradient_17)" stroke="none" d="M898.0000086837341,903.0000273280675C892.4770086837341,903.0000273280675,888.0000086837341,907.4770273280675,888.0000086837341,913.0000273280675c0,5.523,4.477,10,10,10s10,-4.477,10,-10C908.0000086837341,907.4770273280675,903.5230086837341,903.0000273280675,898.0000086837341,903.0000273280675zM898.0000086837341,921.0000273280675c-4.418,0,-8,-3.582,-8,-8s3.582,-8,8,-8s8,3.582,8,8S902.4180086837341,921.0000273280675,898.0000086837341,921.0000273280675z"></path></g></g><g id="minder_node26"><g id="node_expander23" display="none" style="cursor: pointer;"><path id="kity_path_505" fill="white" stroke="gray" d="M877.5000093883934,972.5000285890368A6,6,0,1,1,865.5000093883934,972.5000285890368A6,6,0,1,1,877.5000093883934,972.5000285890368"></path><path id="kity_path_506" fill="none" stroke="gray"></path></g><path id="node_outline24" fill="none" stroke="none" d="M882.5000093883934,957.5000285890368h118a5,5,0,0,1,5,5v20a5,5,0,0,1,-5,5h-118a5,5,0,0,1,-5,-5v-20a5,5,0,0,1,5,-5z"></path><g id="node_text24" fill="black"><text id="kity_text_177" text-rendering="inherit" font-size="12" dy=".8em" y="964.7000286367205" x="912.5000093883934">tcp/ip网络编程</text></g><g id="node_progress13"><path id="kity_path_307" fill="#FFED83" stroke="none" d="M907.0000086837341,973.0000285996332A9,9,0,1,1,889.0000086837341,973.0000285996332A9,9,0,1,1,907.0000086837341,973.0000285996332"></path><path id="kity_path_308" fill="#43BC00" stroke="none" d="M898.0000086837341,973.0000285996332L907.0000086837341,973.0000285996332A9,9,0,0,0,898.0000086837341,964.0000285996332A9,9,0,0,0,889.0000086837341,973.0000285996332L898.0000086837341,973.0000285996332z"></path><path id="kity_path_309" fill="#8E8E8E" stroke="none" d="M898.0000086837341,966.0000285996332c4.418,0,8,3.582,8,8h1c0,-5.523,-3.477,-10,-9,-10S889.0000086837341,968.4770285996332,889.0000086837341,974.0000285996332h1C890.0000086837341,969.5820285996332,893.5820086837341,966.0000285996332,898.0000086837341,966.0000285996332z"></path><path id="kity_path_311" fill="#EEE" stroke="none" d="M913.8120086837341,980.8960285996332l-6.75,6.75l-4.5,-4.5L904.2500086837341,981.4590285996331l2.812,2.803l5.062,-5.053L913.8120086837341,980.8960285996332z" display="none"></path><path id="kity_path_310" fill="url(#kity_linearGradient_17)" stroke="none" d="M898.0000086837341,963.0000285996332C892.4770086837341,963.0000285996332,888.0000086837341,967.4770285996332,888.0000086837341,973.0000285996332c0,5.523,4.477,10,10,10s10,-4.477,10,-10C908.0000086837341,967.4770285996332,903.5230086837341,963.0000285996332,898.0000086837341,963.0000285996332zM898.0000086837341,981.0000285996332c-4.418,0,-8,-3.582,-8,-8s3.582,-8,8,-8s8,3.582,8,8S902.4180086837341,981.0000285996332,898.0000086837341,981.0000285996332z"></path></g></g><g id="minder_node27"><g id="node_expander24" display="none" style="cursor: pointer;"><path id="kity_path_508" fill="white" stroke="gray" d="M877.5000093883934,1032.5000298606026A6,6,0,1,1,865.5000093883934,1032.5000298606026A6,6,0,1,1,877.5000093883934,1032.5000298606026"></path><path id="kity_path_509" fill="none" stroke="gray"></path></g><path id="node_outline25" fill="none" stroke="none" d="M882.5000093883934,1017.5000298606026h95a5,5,0,0,1,5,5v20a5,5,0,0,1,-5,5h-95a5,5,0,0,1,-5,-5v-20a5,5,0,0,1,5,-5z"></path><g id="node_text25" fill="black"><text id="kity_text_179" text-rendering="inherit" font-size="12" dy=".8em" y="1024.7000299082863" x="912.5000093883934">计算机网络</text></g><g id="node_progress14"><path id="kity_path_313" fill="#FFED83" stroke="none" d="M907.0000086837341,1033.0000298711989A9,9,0,1,1,889.0000086837341,1033.0000298711989A9,9,0,1,1,907.0000086837341,1033.0000298711989"></path><path id="kity_path_314" fill="#43BC00" stroke="none" d="M898.0000086837341,1033.0000298711989L907.0000086837341,1033.0000298711989A9,9,0,0,1,889.0000086837341,1033.0000298711989A9,9,0,0,1,907.0000086837341,1033.0000298711989L898.0000086837341,1033.0000298711989z"></path><path id="kity_path_315" fill="#8E8E8E" stroke="none" d="M898.0000086837341,1026.0000298711989c4.418,0,8,3.582,8,8h1c0,-5.523,-3.477,-10,-9,-10S889.0000086837341,1028.477029871199,889.0000086837341,1034.0000298711989h1C890.0000086837341,1029.582029871199,893.5820086837341,1026.0000298711989,898.0000086837341,1026.0000298711989z"></path><path id="kity_path_317" fill="#EEE" stroke="none" d="M903.8120086837341,1030.8960298711988l-6.75,6.75l-4.5,-4.5L894.2500086837341,1031.459029871199l2.812,2.803l5.062,-5.053L903.8120086837341,1030.8960298711988z"></path><path id="kity_path_316" fill="url(#kity_linearGradient_17)" stroke="none" d="M898.0000086837341,1023.0000298711989C892.4770086837341,1023.0000298711989,888.0000086837341,1027.477029871199,888.0000086837341,1033.0000298711989c0,5.523,4.477,10,10,10s10,-4.477,10,-10C908.0000086837341,1027.477029871199,903.5230086837341,1023.0000298711989,898.0000086837341,1023.0000298711989zM898.0000086837341,1041.0000298711989c-4.418,0,-8,-3.582,-8,-8s3.582,-8,8,-8s8,3.582,8,8S902.4180086837341,1041.0000298711989,898.0000086837341,1041.0000298711989z"></path></g></g><g id="minder_node28"><g id="node_expander38" style="cursor: pointer;"><path id="kity_path_550" fill="white" stroke="gray" d="M670.5000047047931,1373.500037087334A6,6,0,1,1,658.5000047047931,1373.500037087334A6,6,0,1,1,670.5000047047931,1373.500037087334"></path><path id="kity_path_551" fill="none" stroke="gray" d="M660.0000047047931,1373.500037087334L669.0000047047931,1373.500037087334"></path></g><path id="node_outline39" fill="rgb(238, 243, 246)" stroke="rgb(115, 161, 191)" d="M674.5000047047931,1360.500037087334h90a3,3,0,0,1,3,3v20a3,3,0,0,1,-3,3h-90a3,3,0,0,1,-3,-3v-20a3,3,0,0,1,3,-3z" stroke-width="1"></path><g id="node_text39" fill="black"><text id="kity_text_207" text-rendering="inherit" font-size="14" dy=".8em" y="1364.4000371827015" x="691.5000047047931">建模算法</text></g></g><g id="minder_node29"><g id="node_expander31" style="cursor: pointer;"><path id="kity_path_529" fill="white" stroke="gray" d="M807.5000079049001,1188.5000331666733A6,6,0,1,1,795.5000079049001,1188.5000331666733A6,6,0,1,1,807.5000079049001,1188.5000331666733"></path><path id="kity_path_530" fill="none" stroke="gray" d="M797.0000079049001,1188.5000331666733L806.0000079049001,1188.5000331666733"></path></g><path id="node_outline32" fill="none" stroke="none" d="M812.5000079049001,1173.5000331666733h83a5,5,0,0,1,5,5v20a5,5,0,0,1,-5,5h-83a5,5,0,0,1,-5,-5v-20a5,5,0,0,1,5,-5z"></path><g id="node_text32" fill="black"><text id="kity_text_193" text-rendering="inherit" font-size="12" dy=".8em" y="1180.700033214357" x="842.5000079049001">计算几何</text></g><g id="node_progress18"><path id="kity_path_337" fill="#FFED83" stroke="none" d="M837.0000072002408,1189.0000331772696A9,9,0,1,1,819.0000072002408,1189.0000331772696A9,9,0,1,1,837.0000072002408,1189.0000331772696"></path><path id="kity_path_338" fill="#43BC00" stroke="none" d="M828.0000072002408,1189.0000331772696L837.0000072002408,1189.0000331772696A9,9,0,0,0,834.3639682309198,1182.6360721465908A9,9,0,0,0,828.0000072002408,1180.0000331772696L828.0000072002408,1189.0000331772696z"></path><path id="kity_path_339" fill="#8E8E8E" stroke="none" d="M828.0000072002408,1182.0000331772696c4.418,0,8,3.582,8,8h1c0,-5.523,-3.477,-10,-9,-10S819.0000072002408,1184.4770331772697,819.0000072002408,1190.0000331772696h1C820.0000072002408,1185.5820331772698,823.5820072002408,1182.0000331772696,828.0000072002408,1182.0000331772696z"></path><path id="kity_path_341" fill="#EEE" stroke="none" d="M843.8120072002408,1196.8960331772696l-6.75,6.75l-4.5,-4.5L834.2500072002408,1197.4590331772697l2.812,2.803l5.062,-5.053L843.8120072002408,1196.8960331772696z" display="none"></path><path id="kity_path_340" fill="url(#kity_linearGradient_17)" stroke="none" d="M828.0000072002408,1179.0000331772696C822.4770072002408,1179.0000331772696,818.0000072002408,1183.4770331772697,818.0000072002408,1189.0000331772696c0,5.523,4.477,10,10,10s10,-4.477,10,-10C838.0000072002408,1183.4770331772697,833.5230072002408,1179.0000331772696,828.0000072002408,1179.0000331772696zM828.0000072002408,1197.0000331772696c-4.418,0,-8,-3.582,-8,-8s3.582,-8,8,-8s8,3.582,8,8S832.4180072002408,1197.0000331772696,828.0000072002408,1197.0000331772696z"></path></g></g><g id="minder_node30"><g id="node_expander27" display="none" style="cursor: pointer;"><path id="kity_path_517" fill="white" stroke="gray" d="M940.5000101937184,1098.5000312593247A6,6,0,1,1,928.5000101937184,1098.5000312593247A6,6,0,1,1,940.5000101937184,1098.5000312593247"></path><path id="kity_path_518" fill="none" stroke="gray"></path></g><path id="node_outline28" fill="none" stroke="none" d="M945.5000101937184,1087.5000312593247h123a5,5,0,0,1,5,5v12a5,5,0,0,1,-5,5h-123a5,5,0,0,1,-5,-5v-12a5,5,0,0,1,5,-5z"></path><g id="node_text28" fill="black"><text id="kity_text_185" text-rendering="inherit" font-size="12" dy=".8em" y="1090.7000313070084" x="950.5000101937184">计算几何-算法与应用</text></g></g><g id="minder_node31"><g id="node_expander28" display="none" style="cursor: pointer;"><path id="kity_path_520" fill="white" stroke="gray" d="M940.5000107235373,1154.5000324461193A6,6,0,1,1,928.5000107235373,1154.5000324461193A6,6,0,1,1,940.5000107235373,1154.5000324461193"></path><path id="kity_path_521" fill="none" stroke="gray"></path></g><path id="node_outline29" fill="none" stroke="none" d="M945.5000107235373,1139.5000324461193h223a5,5,0,0,1,5,5v20a5,5,0,0,1,-5,5h-223a5,5,0,0,1,-5,-5v-20a5,5,0,0,1,5,-5z"></path><g id="node_text29" fill="black"><text id="kity_text_187" text-rendering="inherit" font-size="12" dy=".8em" y="1146.700032493803" x="975.5000107235373">计算机辅助设计与非均匀有理b样条</text></g><g id="node_progress15"><path id="kity_path_319" fill="#FFED83" stroke="none" d="M970.000010018878,1155.0000324567156A9,9,0,1,1,952.000010018878,1155.0000324567156A9,9,0,1,1,970.000010018878,1155.0000324567156"></path><path id="kity_path_320" fill="#43BC00" stroke="none" d="M961.000010018878,1155.0000324567156L970.000010018878,1155.0000324567156A9,9,0,0,0,967.363971049557,1148.6360714260368A9,9,0,0,0,961.000010018878,1146.0000324567156L961.000010018878,1155.0000324567156z"></path><path id="kity_path_321" fill="#8E8E8E" stroke="none" d="M961.000010018878,1148.0000324567156c4.418,0,8,3.582,8,8h1c0,-5.523,-3.477,-10,-9,-10S952.000010018878,1150.4770324567157,952.000010018878,1156.0000324567156h1C953.000010018878,1151.5820324567158,956.582010018878,1148.0000324567156,961.000010018878,1148.0000324567156z"></path><path id="kity_path_323" fill="#EEE" stroke="none" d="M976.812010018878,1162.8960324567156l-6.75,6.75l-4.5,-4.5L967.250010018878,1163.4590324567157l2.812,2.803l5.062,-5.053L976.812010018878,1162.8960324567156z" display="none"></path><path id="kity_path_322" fill="url(#kity_linearGradient_17)" stroke="none" d="M961.000010018878,1145.0000324567156C955.477010018878,1145.0000324567156,951.000010018878,1149.4770324567157,951.000010018878,1155.0000324567156c0,5.523,4.477,10,10,10s10,-4.477,10,-10C971.000010018878,1149.4770324567157,966.523010018878,1145.0000324567156,961.000010018878,1145.0000324567156zM961.000010018878,1163.0000324567156c-4.418,0,-8,-3.582,-8,-8s3.582,-8,8,-8s8,3.582,8,8S965.418010018878,1163.0000324567156,961.000010018878,1163.0000324567156z"></path></g></g><g id="minder_node32"><g id="node_expander29" display="none" style="cursor: pointer;"><path id="kity_path_523" fill="white" stroke="gray" d="M940.5000107235373,1214.500033717685A6,6,0,1,1,928.5000107235373,1214.500033717685A6,6,0,1,1,940.5000107235373,1214.500033717685"></path><path id="kity_path_524" fill="none" stroke="gray"></path></g><path id="node_outline30" fill="none" stroke="none" d="M945.5000107235373,1199.500033717685h156a5,5,0,0,1,5,5v20a5,5,0,0,1,-5,5h-156a5,5,0,0,1,-5,-5v-20a5,5,0,0,1,5,-5z"></path><g id="node_text30" fill="black"><text id="kity_text_189" text-rendering="inherit" font-size="12" dy=".8em" y="1206.7000337653687" x="975.5000107235373">自由曲线曲面造型技术</text></g><g id="node_progress16"><path id="kity_path_325" fill="#FFED83" stroke="none" d="M970.000010018878,1215.0000337282813A9,9,0,1,1,952.000010018878,1215.0000337282813A9,9,0,1,1,970.000010018878,1215.0000337282813"></path><path id="kity_path_326" fill="#43BC00" stroke="none" d="M961.000010018878,1215.0000337282813L970.000010018878,1215.0000337282813A9,9,0,0,0,967.363971049557,1208.6360726976025A9,9,0,0,0,961.000010018878,1206.0000337282813L961.000010018878,1215.0000337282813z"></path><path id="kity_path_327" fill="#8E8E8E" stroke="none" d="M961.000010018878,1208.0000337282813c4.418,0,8,3.582,8,8h1c0,-5.523,-3.477,-10,-9,-10S952.000010018878,1210.4770337282814,952.000010018878,1216.0000337282813h1C953.000010018878,1211.5820337282814,956.582010018878,1208.0000337282813,961.000010018878,1208.0000337282813z"></path><path id="kity_path_329" fill="#EEE" stroke="none" d="M976.812010018878,1222.8960337282813l-6.75,6.75l-4.5,-4.5L967.250010018878,1223.4590337282814l2.812,2.803l5.062,-5.053L976.812010018878,1222.8960337282813z" display="none"></path><path id="kity_path_328" fill="url(#kity_linearGradient_17)" stroke="none" d="M961.000010018878,1205.0000337282813C955.477010018878,1205.0000337282813,951.000010018878,1209.4770337282814,951.000010018878,1215.0000337282813c0,5.523,4.477,10,10,10s10,-4.477,10,-10C971.000010018878,1209.4770337282814,966.523010018878,1205.0000337282813,961.000010018878,1205.0000337282813zM961.000010018878,1223.0000337282813c-4.418,0,-8,-3.582,-8,-8s3.582,-8,8,-8s8,3.582,8,8S965.418010018878,1223.0000337282813,961.000010018878,1223.0000337282813z"></path></g></g><g id="minder_node33"><g id="node_expander30" display="none" style="cursor: pointer;"><path id="kity_path_526" fill="white" stroke="gray" d="M940.5000107235373,1274.5000349892507A6,6,0,1,1,928.5000107235373,1274.5000349892507A6,6,0,1,1,940.5000107235373,1274.5000349892507"></path><path id="kity_path_527" fill="none" stroke="gray"></path></g><path id="node_outline31" fill="none" stroke="none" d="M945.5000107235373,1259.5000349892507h127a5,5,0,0,1,5,5v20a5,5,0,0,1,-5,5h-127a5,5,0,0,1,-5,-5v-20a5,5,0,0,1,5,-5z"></path><g id="node_text31" fill="black"><text id="kity_text_191" text-rendering="inherit" font-size="12" dy=".8em" y="1266.7000350369344" x="975.5000107235373">非均匀有理b样条</text></g><g id="node_progress17"><path id="kity_path_331" fill="#FFED83" stroke="none" d="M970.000010018878,1275.000034999847A9,9,0,1,1,952.000010018878,1275.000034999847A9,9,0,1,1,970.000010018878,1275.000034999847"></path><path id="kity_path_332" fill="#43BC00" stroke="none" d="M961.000010018878,1275.000034999847L970.000010018878,1275.000034999847A9,9,0,0,0,967.363971049557,1268.6360739691681A9,9,0,0,0,961.000010018878,1266.000034999847L961.000010018878,1275.000034999847z"></path><path id="kity_path_333" fill="#8E8E8E" stroke="none" d="M961.000010018878,1268.000034999847c4.418,0,8,3.582,8,8h1c0,-5.523,-3.477,-10,-9,-10S952.000010018878,1270.477034999847,952.000010018878,1276.000034999847h1C953.000010018878,1271.582034999847,956.582010018878,1268.000034999847,961.000010018878,1268.000034999847z"></path><path id="kity_path_335" fill="#EEE" stroke="none" d="M976.812010018878,1282.896034999847l-6.75,6.75l-4.5,-4.5L967.250010018878,1283.459034999847l2.812,2.803l5.062,-5.053L976.812010018878,1282.896034999847z" display="none"></path><path id="kity_path_334" fill="url(#kity_linearGradient_17)" stroke="none" d="M961.000010018878,1265.000034999847C955.477010018878,1265.000034999847,951.000010018878,1269.477034999847,951.000010018878,1275.000034999847c0,5.523,4.477,10,10,10s10,-4.477,10,-10C971.000010018878,1269.477034999847,966.523010018878,1265.000034999847,961.000010018878,1265.000034999847zM961.000010018878,1283.000034999847c-4.418,0,-8,-3.582,-8,-8s3.582,-8,8,-8s8,3.582,8,8S965.418010018878,1283.000034999847,961.000010018878,1283.000034999847z"></path></g></g><g id="minder_node34"><g id="node_expander35" style="cursor: pointer;"><path id="kity_path_541" fill="white" stroke="gray" d="M807.500007375081,1390.5000374476112A6,6,0,1,1,795.500007375081,1390.5000374476112A6,6,0,1,1,807.500007375081,1390.5000374476112"></path><path id="kity_path_542" fill="none" stroke="gray" d="M797.000007375081,1390.5000374476112L806.000007375081,1390.5000374476112"></path></g><path id="node_outline36" fill="none" stroke="none" d="M812.500007375081,1379.5000374476112h35a5,5,0,0,1,5,5v12a5,5,0,0,1,-5,5h-35a5,5,0,0,1,-5,-5v-12a5,5,0,0,1,5,-5z"></path><g id="node_text36" fill="black"><text id="kity_text_201" text-rendering="inherit" font-size="12" dy=".8em" y="1382.700037495295" x="817.500007375081">数学</text></g></g><g id="minder_node35"><g id="node_expander32" display="none" style="cursor: pointer;"><path id="kity_path_532" fill="white" stroke="gray" d="M892.5000097062848,1334.5000362608166A6,6,0,1,1,880.5000097062848,1334.5000362608166A6,6,0,1,1,892.5000097062848,1334.5000362608166"></path><path id="kity_path_533" fill="none" stroke="gray"></path></g><path id="node_outline33" fill="none" stroke="none" d="M897.5000097062848,1319.5000362608166h155a5,5,0,0,1,5,5v20a5,5,0,0,1,-5,5h-155a5,5,0,0,1,-5,-5v-20a5,5,0,0,1,5,-5z"></path><g id="node_text33" fill="black"><text id="kity_text_195" text-rendering="inherit" font-size="12" dy=".8em" y="1326.7000363085003" x="927.5000097062848">曲线曲面中的微分几何</text></g><g id="node_progress19"><path id="kity_path_343" fill="#FFED83" stroke="none" d="M922.0000090016255,1335.000036271413A9,9,0,1,1,904.0000090016255,1335.000036271413A9,9,0,1,1,922.0000090016255,1335.000036271413"></path><path id="kity_path_344" fill="#43BC00" stroke="none" d="M913.0000090016255,1335.000036271413L922.0000090016255,1335.000036271413A9,9,0,0,0,921.3149247942271,1331.5558853801272A9,9,0,0,0,919.3639700323045,1328.636075240734L913.0000090016255,1335.000036271413z"></path><path id="kity_path_345" fill="#8E8E8E" stroke="none" d="M913.0000090016255,1328.000036271413c4.418,0,8,3.582,8,8h1c0,-5.523,-3.477,-10,-9,-10S904.0000090016255,1330.477036271413,904.0000090016255,1336.000036271413h1C905.0000090016255,1331.582036271413,908.5820090016255,1328.000036271413,913.0000090016255,1328.000036271413z"></path><path id="kity_path_347" fill="#EEE" stroke="none" d="M928.8120090016255,1342.8960362714129l-6.75,6.75l-4.5,-4.5L919.2500090016255,1343.459036271413l2.812,2.803l5.062,-5.053L928.8120090016255,1342.8960362714129z" display="none"></path><path id="kity_path_346" fill="url(#kity_linearGradient_17)" stroke="none" d="M913.0000090016255,1325.000036271413C907.4770090016254,1325.000036271413,903.0000090016255,1329.477036271413,903.0000090016255,1335.000036271413c0,5.523,4.477,10,10,10s10,-4.477,10,-10C923.0000090016255,1329.477036271413,918.5230090016255,1325.000036271413,913.0000090016255,1325.000036271413zM913.0000090016255,1343.000036271413c-4.418,0,-8,-3.582,-8,-8s3.582,-8,8,-8s8,3.582,8,8S917.4180090016255,1343.000036271413,913.0000090016255,1343.000036271413z"></path></g></g><g id="minder_node36"><g id="node_expander33" display="none" style="cursor: pointer;"><path id="kity_path_535" fill="white" stroke="gray" d="M892.5000097062848,1394.500037532382A6,6,0,1,1,880.5000097062848,1394.500037532382A6,6,0,1,1,892.5000097062848,1394.500037532382"></path><path id="kity_path_536" fill="none" stroke="gray"></path></g><path id="node_outline34" fill="none" stroke="none" d="M897.5000097062848,1379.500037532382h123a5,5,0,0,1,5,5v20a5,5,0,0,1,-5,5h-123a5,5,0,0,1,-5,-5v-20a5,5,0,0,1,5,-5z"></path><g id="node_text34" fill="black"><text id="kity_text_197" text-rendering="inherit" font-size="12" dy=".8em" y="1386.7000375800658" x="927.5000097062848">邱维生 解析几何</text></g><g id="node_progress20"><path id="kity_path_349" fill="#FFED83" stroke="none" d="M922.0000090016255,1395.0000375429784A9,9,0,1,1,904.0000090016255,1395.0000375429784A9,9,0,1,1,922.0000090016255,1395.0000375429784"></path><path id="kity_path_350" fill="#43BC00" stroke="none" d="M913.0000090016255,1395.0000375429784L922.0000090016255,1395.0000375429784A9,9,0,0,0,921.3149247942271,1391.5558866516926A9,9,0,0,0,919.3639700323045,1388.6360765122995L913.0000090016255,1395.0000375429784z"></path><path id="kity_path_351" fill="#8E8E8E" stroke="none" d="M913.0000090016255,1388.0000375429784c4.418,0,8,3.582,8,8h1c0,-5.523,-3.477,-10,-9,-10S904.0000090016255,1390.4770375429785,904.0000090016255,1396.0000375429784h1C905.0000090016255,1391.5820375429785,908.5820090016255,1388.0000375429784,913.0000090016255,1388.0000375429784z"></path><path id="kity_path_353" fill="#EEE" stroke="none" d="M928.8120090016255,1402.8960375429783l-6.75,6.75l-4.5,-4.5L919.2500090016255,1403.4590375429784l2.812,2.803l5.062,-5.053L928.8120090016255,1402.8960375429783z" display="none"></path><path id="kity_path_352" fill="url(#kity_linearGradient_17)" stroke="none" d="M913.0000090016255,1385.0000375429784C907.4770090016254,1385.0000375429784,903.0000090016255,1389.4770375429785,903.0000090016255,1395.0000375429784c0,5.523,4.477,10,10,10s10,-4.477,10,-10C923.0000090016255,1389.4770375429785,918.5230090016255,1385.0000375429784,913.0000090016255,1385.0000375429784zM913.0000090016255,1403.0000375429784c-4.418,0,-8,-3.582,-8,-8s3.582,-8,8,-8s8,3.582,8,8S917.4180090016255,1403.0000375429784,913.0000090016255,1403.0000375429784z"></path></g></g><g id="minder_node37"><g id="node_expander34" display="none" style="cursor: pointer;"><path id="kity_path_538" fill="white" stroke="gray" d="M892.5000091764658,1450.5000387191767A6,6,0,1,1,880.5000091764658,1450.5000387191767A6,6,0,1,1,892.5000091764658,1450.5000387191767"></path><path id="kity_path_539" fill="none" stroke="gray"></path></g><path id="node_outline35" fill="none" stroke="none" d="M897.5000091764658,1439.5000387191767h70a5,5,0,0,1,5,5v12a5,5,0,0,1,-5,5h-70a5,5,0,0,1,-5,-5v-12a5,5,0,0,1,5,-5z"></path><g id="node_text35" fill="black"><text id="kity_text_199" text-rendering="inherit" font-size="12" dy=".8em" y="1442.7000387668604" x="902.5000091764658">基础拓扑学</text></g></g><g id="minder_node38"><g id="node_expander36" display="none" style="cursor: pointer;"><path id="kity_path_544" fill="white" stroke="gray" d="M807.5000079049001,1506.5000399059713A6,6,0,1,1,795.5000079049001,1506.5000399059713A6,6,0,1,1,807.5000079049001,1506.5000399059713"></path><path id="kity_path_545" fill="none" stroke="gray"></path></g><path id="node_outline37" fill="none" stroke="none" d="M812.5000079049001,1491.5000399059713h79a5,5,0,0,1,5,5v20a5,5,0,0,1,-5,5h-79a5,5,0,0,1,-5,-5v-20a5,5,0,0,1,5,-5z"></path><g id="node_text37" fill="black"><text id="kity_text_203" text-rendering="inherit" font-size="12" dy=".8em" y="1498.700039953655" x="842.5000079049001">occ教程</text></g><g id="node_progress21"><path id="kity_path_355" fill="#FFED83" stroke="none" d="M837.0000072002408,1507.0000399165676A9,9,0,1,1,819.0000072002408,1507.0000399165676A9,9,0,1,1,837.0000072002408,1507.0000399165676"></path><path id="kity_path_356" fill="#43BC00" stroke="none" d="M828.0000072002408,1507.0000399165676L837.0000072002408,1507.0000399165676A9,9,0,0,0,836.3149229928424,1503.5558890252819A9,9,0,0,0,834.3639682309198,1500.6360788858888L828.0000072002408,1507.0000399165676z"></path><path id="kity_path_357" fill="#8E8E8E" stroke="none" d="M828.0000072002408,1500.0000399165676c4.418,0,8,3.582,8,8h1c0,-5.523,-3.477,-10,-9,-10S819.0000072002408,1502.4770399165677,819.0000072002408,1508.0000399165676h1C820.0000072002408,1503.5820399165677,823.5820072002408,1500.0000399165676,828.0000072002408,1500.0000399165676z"></path><path id="kity_path_359" fill="#EEE" stroke="none" d="M843.8120072002408,1514.8960399165676l-6.75,6.75l-4.5,-4.5L834.2500072002408,1515.4590399165677l2.812,2.803l5.062,-5.053L843.8120072002408,1514.8960399165676z" display="none"></path><path id="kity_path_358" fill="url(#kity_linearGradient_17)" stroke="none" d="M828.0000072002408,1497.0000399165676C822.4770072002408,1497.0000399165676,818.0000072002408,1501.4770399165677,818.0000072002408,1507.0000399165676c0,5.523,4.477,10,10,10s10,-4.477,10,-10C838.0000072002408,1501.4770399165677,833.5230072002408,1497.0000399165676,828.0000072002408,1497.0000399165676zM828.0000072002408,1515.0000399165676c-4.418,0,-8,-3.582,-8,-8s3.582,-8,8,-8s8,3.582,8,8S832.4180072002408,1515.0000399165676,828.0000072002408,1515.0000399165676z"></path></g></g><g id="minder_node39"><g id="node_expander37" display="none" style="cursor: pointer;"><path id="kity_path_547" fill="white" stroke="gray" d="M807.500007375081,1562.500041092766A6,6,0,1,1,795.500007375081,1562.500041092766A6,6,0,1,1,807.500007375081,1562.500041092766"></path><path id="kity_path_548" fill="none" stroke="gray"></path></g><path id="node_outline38" fill="none" stroke="none" d="M812.500007375081,1551.500041092766h63a5,5,0,0,1,5,5v12a5,5,0,0,1,-5,5h-63a5,5,0,0,1,-5,-5v-12a5,5,0,0,1,5,-5z"></path><g id="node_text38" fill="black"><text id="kity_text_205" text-rendering="inherit" font-size="12" dy=".8em" y="1554.7000411404497" x="817.500007375081">parasolid</text></g></g><g id="minder_node40"><g id="node_expander40" style="cursor: pointer;"><path id="kity_path_556" fill="white" stroke="gray" d="M670.5000047047931,1626.5000424491027A6,6,0,1,1,658.5000047047931,1626.5000424491027A6,6,0,1,1,670.5000047047931,1626.5000424491027"></path><path id="kity_path_557" fill="none" stroke="gray" d="M660.0000047047931,1626.5000424491027L669.0000047047931,1626.5000424491027"></path></g><path id="node_outline41" fill="rgb(238, 243, 246)" stroke="rgb(115, 161, 191)" d="M674.5000047047931,1613.5000424491027h62a3,3,0,0,1,3,3v20a3,3,0,0,1,-3,3h-62a3,3,0,0,1,-3,-3v-20a3,3,0,0,1,3,-3z" stroke-width="1"></path><g id="node_text41" fill="black"><text id="kity_text_211" text-rendering="inherit" font-size="14" dy=".8em" y="1617.4000425444701" x="691.5000047047931">思辨</text></g></g><g id="minder_node41"><g id="node_expander39" display="none" style="cursor: pointer;"><path id="kity_path_553" fill="white" stroke="gray" d="M779.5000067816839,1626.5000424491027A6,6,0,1,1,767.5000067816839,1626.5000424491027A6,6,0,1,1,779.5000067816839,1626.5000424491027"></path><path id="kity_path_554" fill="none" stroke="gray"></path></g><path id="node_outline40" fill="none" stroke="none" d="M784.5000067816839,1615.5000424491027h46a5,5,0,0,1,5,5v12a5,5,0,0,1,-5,5h-46a5,5,0,0,1,-5,-5v-12a5,5,0,0,1,5,-5z"></path><g id="node_text40" fill="black"><text id="kity_text_209" text-rendering="inherit" font-size="12" dy=".8em" y="1618.7000424967864" x="789.5000067816839">传习录</text></g></g><g id="minder_node42"><g id="node_expander44" style="cursor: pointer;"><path id="kity_path_568" fill="white" stroke="gray" d="M338.4999997456872,910.5000272750856A6,6,0,1,1,326.4999997456872,910.5000272750856A6,6,0,1,1,338.4999997456872,910.5000272750856"></path><path id="kity_path_569" fill="none" stroke="gray" d="M327.9999997456872,910.5000272750856L336.9999997456872,910.5000272750856"></path></g><path id="node_outline45" fill="rgb(238, 243, 246)" stroke="rgb(115, 161, 191)" d="M260.49999593098994,897.5000272750856h62a3,3,0,0,1,3,3v20a3,3,0,0,1,-3,3h-62a3,3,0,0,1,-3,-3v-20a3,3,0,0,1,3,-3z" stroke-width="1"></path><g id="node_text45" fill="black"><text id="kity_text_219" text-rendering="inherit" font-size="14" dy=".8em" y="901.400027370453" x="277.49999593098994">综合</text></g></g><g id="minder_node43"><g id="node_expander41" display="none" style="cursor: pointer;"><path id="kity_path_559" fill="white" stroke="gray" d="M229.49999292161777,858.500026173062A6,6,0,1,1,217.49999292161777,858.500026173062A6,6,0,1,1,229.49999292161777,858.500026173062"></path><path id="kity_path_560" fill="none" stroke="gray"></path></g><path id="node_outline42" fill="none" stroke="none" d="M130.49999292161777,847.500026173062h82a5,5,0,0,1,5,5v12a5,5,0,0,1,-5,5h-82a5,5,0,0,1,-5,-5v-12a5,5,0,0,1,5,-5z"></path><g id="node_text42" fill="black"><text id="kity_text_213" text-rendering="inherit" font-size="12" dy=".8em" y="850.7000262207457" x="135.49999292161777">小米创业思考</text></g></g><g id="minder_node44"><g id="node_expander42" display="none" style="cursor: pointer;"><path id="kity_path_562" fill="white" stroke="gray" d="M229.4999918619797,910.5000272750856A6,6,0,1,1,217.4999918619797,910.5000272750856A6,6,0,1,1,229.4999918619797,910.5000272750856"></path><path id="kity_path_563" fill="none" stroke="gray"></path></g><path id="node_outline43" fill="none" stroke="none" d="M80.49999186197971,899.5000272750856h132a5,5,0,0,1,5,5v12a5,5,0,0,1,-5,5h-132a5,5,0,0,1,-5,-5v-12a5,5,0,0,1,5,-5z"></path><g id="node_text43" fill="black"><text id="kity_text_215" text-rendering="inherit" font-size="12" dy=".8em" y="902.7000273227693" x="85.49999186197971">猫说—区块链投资笔记</text></g></g><g id="minder_node45"><g id="node_expander43" display="none" style="cursor: pointer;"><path id="kity_path_565" fill="white" stroke="gray" d="M229.49999239179874,962.5000283771092A6,6,0,1,1,217.49999239179874,962.5000283771092A6,6,0,1,1,229.49999239179874,962.5000283771092"></path><path id="kity_path_566" fill="none" stroke="gray"></path></g><path id="node_outline44" fill="none" stroke="none" d="M105.49999239179874,951.5000283771092h107a5,5,0,0,1,5,5v12a5,5,0,0,1,-5,5h-107a5,5,0,0,1,-5,-5v-12a5,5,0,0,1,5,-5z"></path><g id="node_text44" fill="black"><text id="kity_text_217" text-rendering="inherit" font-size="12" dy=".8em" y="954.7000284247929" x="110.49999239179874">手把手教你读财报</text></g></g><g id="minder_node46"><g id="node_expander47" style="cursor: pointer;"><path id="kity_path_577" fill="white" stroke="gray" d="M338.4999938329066,1060.500030454A6,6,0,1,1,326.4999938329066,1060.500030454A6,6,0,1,1,338.4999938329066,1060.500030454"></path><path id="kity_path_578" fill="none" stroke="gray" d="M327.9999938329066,1060.500030454L336.9999938329066,1060.500030454"></path></g><path id="node_outline48" fill="rgb(238, 243, 246)" stroke="rgb(115, 161, 191)" d="M161.49999383290657,1047.500030454h161a3,3,0,0,1,3,3v20a3,3,0,0,1,-3,3h-161a3,3,0,0,1,-3,-3v-20a3,3,0,0,1,3,-3z" stroke-width="1"></path><g id="node_text48" fill="black"><text id="kity_text_225" text-rendering="inherit" font-size="14" dy=".8em" y="1051.4000305493673" x="178.49999383290657">不知道读什么的时候</text></g></g><g id="minder_node47"><g id="node_expander45" display="none" style="cursor: pointer;"><path id="kity_path_571" fill="white" stroke="gray" d="M130.49999080234164,1029.5000297970241A6,6,0,1,1,118.49999080234166,1029.5000297970241A6,6,0,1,1,130.49999080234164,1029.5000297970241"></path><path id="kity_path_572" fill="none" stroke="gray"></path></g><path id="node_outline46" fill="none" stroke="none" d="M30.499990802341642,1013.5000297970241h83a5,5,0,0,1,5,5v22a5,5,0,0,1,-5,5h-83a5,5,0,0,1,-5,-5v-22a5,5,0,0,1,5,-5z"></path><g id="node_text46" fill="black"><text id="kity_text_221" text-rendering="inherit" font-size="12" dy=".8em" y="1021.7000298447078" x="35.49999080234164">occ推荐</text></g><a id="kity_a_372" xlink:href="https://www.cnblogs.com/opencascade/p/OpenCASCADE_StartGuide.html" target="_blank" xlink:title="https://www.cnblogs.com/opencascade/p/OpenCASCADE_StartGuide.html" style="cursor: pointer;"><path id="kity_path_374" fill="rgba(255, 255, 255, 0)" stroke="none" d="M88.49999080234164,1018.5000297970241h16a4,4,0,0,1,4,4v14a4,4,0,0,1,-4,4h-16a4,4,0,0,1,-4,-4v-14a4,4,0,0,1,4,-4z"></path><path id="kity_path_373" fill="#666" stroke="none" d="M103.11399080234165,1034.724029797024h-1.278c-1.668,0,-3.07,-1.07,-3.599,-2.556h4.877c0.707,0,1.278,-0.571,1.278,-1.278V1028.3340297970242c0,-0.707,-0.571,-1.278,-1.278,-1.278h-4.877C98.76599080234165,1025.571029797024,100.16799080234165,1024.5000297970241,101.83599080234164,1024.5000297970241h1.278c2.116,0,3.834,1.716,3.834,3.834V1030.8900297970242C106.94799080234165,1033.0080297970242,105.22999080234165,1034.724029797024,103.11399080234165,1034.724029797024zM91.61199080234164,1029.6120297970242c0,-0.707,0.573,-1.278,1.278,-1.278h7.668c0.707,0,1.278,0.571,1.278,1.278S101.26499080234164,1030.8900297970242,100.55799080234164,1030.8900297970242H92.88999080234164C92.18499080234164,1030.8900297970242,91.61199080234164,1030.319029797024,91.61199080234164,1029.6120297970242zM89.05599080234164,1028.3340297970242V1030.8900297970242c0,0.707,0.573,1.278,1.278,1.278h4.877c-0.528,1.486,-1.932,2.556,-3.599,2.556H90.33399080234165C88.21599080234164,1034.724029797024,86.49999080234164,1033.0080297970242,86.49999080234164,1030.8900297970242V1028.3340297970242C86.49999080234164,1026.216029797024,88.21599080234164,1024.5000297970241,90.33399080234165,1024.5000297970241h1.278c1.667,0,3.071,1.071,3.599,2.556H90.33399080234165C89.62899080234165,1027.0560297970242,89.05599080234164,1027.627029797024,89.05599080234164,1028.3340297970242z"></path></a></g><g id="minder_node48"><g id="node_expander46" display="none" style="cursor: pointer;"><path id="kity_path_574" fill="white" stroke="gray" d="M130.49999069637784,1091.5000311109754A6,6,0,1,1,118.49999069637784,1091.5000311109754A6,6,0,1,1,130.49999069637784,1091.5000311109754"></path><path id="kity_path_575" fill="none" stroke="gray"></path></g><path id="node_outline47" fill="none" stroke="none" d="M25.499990696377836,1075.5000311109754h88a5,5,0,0,1,5,5v22a5,5,0,0,1,-5,5h-88a5,5,0,0,1,-5,-5v-22a5,5,0,0,1,5,-5z"></path><g id="node_text47" fill="black"><text id="kity_text_223" text-rendering="inherit" font-size="12" dy=".8em" y="1083.7000311586592" x="30.499990696377836">软件工程</text></g><a id="kity_a_375" xlink:href="https://www.cnblogs.com/651434092qq/p/11016271.html" target="_blank" xlink:title="https://www.cnblogs.com/651434092qq/p/11016271.html" style="cursor: pointer;"><path id="kity_path_377" fill="rgba(255, 255, 255, 0)" stroke="none" d="M88.49999069637784,1080.5000311109754h16a4,4,0,0,1,4,4v14a4,4,0,0,1,-4,4h-16a4,4,0,0,1,-4,-4v-14a4,4,0,0,1,4,-4z"></path><path id="kity_path_376" fill="#666" stroke="none" d="M103.11399069637784,1096.7240311109754h-1.278c-1.668,0,-3.07,-1.07,-3.599,-2.556h4.877c0.707,0,1.278,-0.571,1.278,-1.278V1090.3340311109755c0,-0.707,-0.571,-1.278,-1.278,-1.278h-4.877C98.76599069637784,1087.5710311109754,100.16799069637784,1086.5000311109754,101.83599069637783,1086.5000311109754h1.278c2.116,0,3.834,1.716,3.834,3.834V1092.8900311109755C106.94799069637784,1095.0080311109755,105.22999069637784,1096.7240311109754,103.11399069637784,1096.7240311109754zM91.61199069637783,1091.6120311109755c0,-0.707,0.573,-1.278,1.278,-1.278h7.668c0.707,0,1.278,0.571,1.278,1.278S101.26499069637784,1092.8900311109755,100.55799069637783,1092.8900311109755H92.88999069637784C92.18499069637784,1092.8900311109755,91.61199069637783,1092.3190311109754,91.61199069637783,1091.6120311109755zM89.05599069637783,1090.3340311109755V1092.8900311109755c0,0.707,0.573,1.278,1.278,1.278h4.877c-0.528,1.486,-1.932,2.556,-3.599,2.556H90.33399069637784C88.21599069637783,1096.7240311109754,86.49999069637784,1095.0080311109755,86.49999069637784,1092.8900311109755V1090.3340311109755C86.49999069637784,1088.2160311109753,88.21599069637783,1086.5000311109754,90.33399069637784,1086.5000311109754h1.278c1.667,0,3.071,1.071,3.599,2.556H90.33399069637784C89.62899069637784,1089.0560311109755,89.05599069637783,1089.6270311109754,89.05599069637783,1090.3340311109755z"></path></a></g><g id="minder_node49"><g id="node_expander51" style="cursor: pointer;"><path id="kity_path_589" fill="white" stroke="gray" d="M338.4999997456872,1218.500033802456A6,6,0,1,1,326.4999997456872,1218.500033802456A6,6,0,1,1,338.4999997456872,1218.500033802456"></path><path id="kity_path_590" fill="none" stroke="gray" d="M327.9999997456872,1218.500033802456L336.9999997456872,1218.500033802456"></path></g><path id="node_outline52" fill="rgb(238, 243, 246)" stroke="rgb(115, 161, 191)" d="M260.49999593098994,1205.500033802456h62a3,3,0,0,1,3,3v20a3,3,0,0,1,-3,3h-62a3,3,0,0,1,-3,-3v-20a3,3,0,0,1,3,-3z" stroke-width="1"></path><g id="node_text52" fill="black"><text id="kity_text_233" text-rendering="inherit" font-size="14" dy=".8em" y="1209.4000338978235" x="277.49999593098994">管理</text></g></g><g id="minder_node50"><g id="node_expander48" display="none" style="cursor: pointer;"><path id="kity_path_580" fill="white" stroke="gray" d="M229.49999997880775,1162.5000326156614A6,6,0,1,1,217.49999997880775,1162.5000326156614A6,6,0,1,1,229.49999997880775,1162.5000326156614"></path><path id="kity_path_581" fill="none" stroke="gray"></path></g><path id="node_outline49" fill="none" stroke="none" d="M78.49999234941322,1147.5000326156614h134a5,5,0,0,1,5,5v20a5,5,0,0,1,-5,5h-134a5,5,0,0,1,-5,-5v-20a5,5,0,0,1,5,-5z"></path><g id="node_text49" fill="black"><text id="kity_text_227" text-rendering="inherit" font-size="12" dy=".8em" y="1154.7000326633452" x="108.49999234941322">21世纪的管理挑战</text></g><g id="node_progress22"><path id="kity_path_361" fill="#FFED83" stroke="none" d="M102.99999164475386,1163.0000326262577A9,9,0,1,1,84.99999164475386,1163.0000326262577A9,9,0,1,1,102.99999164475386,1163.0000326262577"></path><path id="kity_path_362" fill="#43BC00" stroke="none" d="M93.99999164475386,1163.0000326262577L102.99999164475386,1163.0000326262577A9,9,0,0,0,87.63603061407494,1156.6360715955789A9,9,0,0,0,93.99999164475386,1172.0000326262577L93.99999164475386,1163.0000326262577z"></path><path id="kity_path_363" fill="#8E8E8E" stroke="none" d="M93.99999164475386,1156.0000326262577c4.418,0,8,3.582,8,8h1c0,-5.523,-3.477,-10,-9,-10S84.99999164475386,1158.4770326262578,84.99999164475386,1164.0000326262577h1C85.99999164475386,1159.5820326262578,89.58199164475386,1156.0000326262577,93.99999164475386,1156.0000326262577z"></path><path id="kity_path_365" fill="#EEE" stroke="none" d="M109.81199164475386,1170.8960326262577l-6.75,6.75l-4.5,-4.5L100.24999164475386,1171.4590326262578l2.812,2.803l5.062,-5.053L109.81199164475386,1170.8960326262577z" display="none"></path><path id="kity_path_364" fill="url(#kity_linearGradient_17)" stroke="none" d="M93.99999164475386,1153.0000326262577C88.47699164475387,1153.0000326262577,83.99999164475386,1157.4770326262578,83.99999164475386,1163.0000326262577c0,5.523,4.477,10,10,10s10,-4.477,10,-10C103.99999164475386,1157.4770326262578,99.52299164475386,1153.0000326262577,93.99999164475386,1153.0000326262577zM93.99999164475386,1171.0000326262577c-4.418,0,-8,-3.582,-8,-8s3.582,-8,8,-8s8,3.582,8,8S98.41799164475387,1171.0000326262577,93.99999164475386,1171.0000326262577z"></path></g></g><g id="minder_node51"><g id="node_expander49" display="none" style="cursor: pointer;"><path id="kity_path_583" fill="white" stroke="gray" d="M229.50000029669917,1218.500033802456A6,6,0,1,1,217.50000029669917,1218.500033802456A6,6,0,1,1,229.50000029669917,1218.500033802456"></path><path id="kity_path_584" fill="none" stroke="gray"></path></g><path id="node_outline50" fill="none" stroke="none" d="M118.49999266730464,1207.500033802456h94a5,5,0,0,1,5,5v12a5,5,0,0,1,-5,5h-94a5,5,0,0,1,-5,-5v-12a5,5,0,0,1,5,-5z"></path><g id="node_text50" fill="black"><text id="kity_text_229" text-rendering="inherit" font-size="12" dy=".8em" y="1210.7000338501398" x="123.49999266730464">忙总的管理日记</text></g></g><g id="minder_node52"><g id="node_expander50" display="none" style="cursor: pointer;"><path id="kity_path_586" fill="white" stroke="gray" d="M229.49999162885933,1274.5000349892507A6,6,0,1,1,217.49999162885933,1274.5000349892507A6,6,0,1,1,229.49999162885933,1274.5000349892507"></path><path id="kity_path_587" fill="none" stroke="gray"></path></g><path id="node_outline51" fill="none" stroke="none" d="M44.499991628859334,1259.5000349892507h168a5,5,0,0,1,5,5v20a5,5,0,0,1,-5,5h-168a5,5,0,0,1,-5,-5v-20a5,5,0,0,1,5,-5z"></path><g id="node_text51" fill="black"><text id="kity_text_231" text-rendering="inherit" font-size="12" dy=".8em" y="1266.7000350369344" x="74.49999162885933">格鲁夫给经理人的第一课</text></g><g id="node_progress23"><path id="kity_path_367" fill="#FFED83" stroke="none" d="M68.99999092419998,1275.000034999847A9,9,0,1,1,50.99999092419998,1275.000034999847A9,9,0,1,1,68.99999092419998,1275.000034999847"></path><path id="kity_path_368" fill="#43BC00" stroke="none" d="M59.99999092419998,1275.000034999847L68.99999092419998,1275.000034999847A9,9,0,0,0,68.31490671680156,1271.5558841085613A9,9,0,0,0,66.3639519548789,1268.6360739691681L59.99999092419998,1275.000034999847z"></path><path id="kity_path_369" fill="#8E8E8E" stroke="none" d="M59.99999092419998,1268.000034999847c4.418,0,8,3.582,8,8h1c0,-5.523,-3.477,-10,-9,-10S50.99999092419998,1270.477034999847,50.99999092419998,1276.000034999847h1C51.99999092419998,1271.582034999847,55.58199092419998,1268.000034999847,59.99999092419998,1268.000034999847z"></path><path id="kity_path_371" fill="#EEE" stroke="none" d="M75.81199092419997,1282.896034999847l-6.75,6.75l-4.5,-4.5L66.24999092419998,1283.459034999847l2.812,2.803l5.062,-5.053L75.81199092419997,1282.896034999847z" display="none"></path><path id="kity_path_370" fill="url(#kity_linearGradient_17)" stroke="none" d="M59.99999092419998,1265.000034999847C54.47699092419998,1265.000034999847,49.99999092419998,1269.477034999847,49.99999092419998,1275.000034999847c0,5.523,4.477,10,10,10s10,-4.477,10,-10C69.99999092419998,1269.477034999847,65.52299092419997,1265.000034999847,59.99999092419998,1265.000034999847zM59.99999092419998,1283.000034999847c-4.418,0,-8,-3.582,-8,-8s3.582,-8,8,-8s8,3.582,8,8S64.41799092419998,1283.000034999847,59.99999092419998,1283.000034999847z"></path></g></g></g></g></svg>